<svg width="157" height="156" viewBox="0 0 157 156" fill="none" xmlns="http://www.w3.org/2000/svg">
<path d="M144.43 119.85C142.106 123.516 139.484 126.985 136.59 130.22C134.579 132.479 132.435 134.616 130.17 136.62L129.65 137.08L128.58 137.99L127.77 138.66L126.99 139.29C125.59 140.4 124.17 141.46 122.72 142.45L122.01 142.92C121.53 143.247 121.05 143.58 120.57 143.92L119.06 144.86L118.28 145.32C117.88 145.56 117.46 145.81 117.05 146.04L115.82 146.73C115.52 146.89 115.21 147.06 114.88 147.22H114.78C113.88 147.69 112.98 148.14 112.06 148.57C111.46 148.87 110.84 149.15 110.23 149.41L109.7 149.65L109.49 149.74L109.26 149.84L108.71 150.07L107.13 150.71L106.89 150.81L106.22 151.05H106.11L105.98 151.1L105.36 151.34L104.94 151.49L104.65 151.6L104.4 151.68C103.96 151.84 103.51 151.99 103.05 152.14C102.42 152.35 101.8 152.55 101.17 152.74L100.94 152.82C100.8 152.82 100.66 152.89 100.52 152.94H100.37L99.48 153.19L99.28 153.24L98.83 153.37L98.39 153.48L97.39 153.74L97.09 153.82L96.86 153.87L95.49 154.2L94.94 154.31C94.53 154.41 94.11 154.49 93.7 154.57H93.48C92.85 154.7 92.21 154.81 91.58 154.91C90.44 155.11 89.3 155.27 88.15 155.41L87.4 155.51L86.08 155.64L85.26 155.72C84.78 155.72 84.32 155.79 83.84 155.82C83.36 155.85 82.9 155.89 82.43 155.9C81.68 155.9 80.94 155.97 80.19 155.98C80.0401 155.99 79.8898 155.99 79.74 155.98H77.45C76.78 155.98 76.1 155.98 75.45 155.92C74.27 155.92 73.09 155.8 71.91 155.71L71.26 155.64L70.36 155.55C68.85 155.41 67.36 155.2 65.85 154.96L64.11 154.65L63.55 154.54L63.05 154.45H62.87L62.02 154.27L61.78 154.22L60.78 153.99C59.58 153.71 58.37 153.4 57.17 153.06L56.82 152.96L56.56 152.88C55.18 152.48 53.81 152.04 52.44 151.55L51.84 151.33L50.99 151.01C50.63 150.883 50.27 150.743 49.91 150.59L49.21 150.31L48.72 150.11L48.42 149.99L48.24 149.91L48 150L47.81 149.92C47.56 149.82 47.32 149.71 47.07 149.59L46.78 149.46C46.54 149.35 46.3 149.25 46.07 149.13L45.43 148.84L44.93 148.62L43.93 148.11L43.09 147.68L42.93 147.6C42.6 147.44 42.28 147.26 41.93 147.1C41.8958 147.087 41.865 147.067 41.84 147.04L41.7 146.97L40.7 146.43L40.23 146.16L40.11 146.1L39.51 145.75L39.37 145.67L38.76 145.32C38.57 145.2 38.38 145.1 38.19 144.97L38 144.86L37.72 144.69L37.19 144.36L36.84 144.15L36.49 143.92L35.78 143.46L35.64 143.37L35.53 143.3L35.42 143.22L35.35 143.17C35.1423 143.045 34.942 142.908 34.75 142.76C34.49 142.61 34.26 142.44 34.02 142.27C33.9878 142.254 33.9576 142.233 33.93 142.21L33.62 141.99L33.32 141.79L32.85 141.45C32.85 141.45 32.85 141.45 32.8 141.45C32.2 141.02 31.6 140.58 31.03 140.12L29.89 139.25L28.48 138C28.4145 137.938 28.3443 137.881 28.27 137.83C27.65 137.31 27.04 136.78 26.44 136.23C25.84 135.68 25.5 135.38 25.04 134.94C24.9 134.82 24.77 134.69 24.64 134.56C24.28 134.23 23.93 133.89 23.58 133.56L23 133C22.58 132.57 22.16 132.13 21.75 131.69L21.56 131.5C21.56 131.5 21.56 131.5 21.56 131.45C21.31 131.19 21.06 130.92 20.82 130.65C20.36 130.143 19.91 129.633 19.47 129.12C19.32 128.96 19.19 128.79 19.05 128.63C17.88 127.24 16.75 125.81 15.68 124.35C15.08 123.53 14.49 122.7 13.92 121.85L13.63 121.42L13.15 120.69C13.15 120.69 13.15 120.69 13.15 120.62C12.29 119.29 11.46 117.92 10.68 116.54C10.59 116.38 10.5 116.21 10.42 116.04C9.86998 115.04 9.35998 114.1 8.86998 113.11C8.54998 112.45 8.22998 111.81 7.91998 111.11C6.85998 108.81 5.91998 106.47 5.06998 104.11C4.67998 103.01 4.30998 101.9 3.97998 100.78C3.94873 100.691 3.92203 100.601 3.89998 100.51C3.83998 100.28 3.76998 100.06 3.68998 99.82C3.50998 99.19 3.33998 98.55 3.16998 97.93C-0.0956316 85.4108 -0.195765 72.2758 2.8786 59.7083C5.95296 47.1407 12.1052 35.5353 20.7813 25.9373C29.4574 16.3393 40.3847 9.05028 52.5791 4.72671C64.7734 0.403136 77.8517 -0.819161 90.636 1.16991C103.42 3.15899 115.509 8.29695 125.813 16.121C136.118 23.9451 144.314 34.2095 149.664 45.9897C155.014 57.77 157.349 70.696 156.46 83.6035C155.571 96.5111 151.485 108.995 144.57 119.93L144.43 119.85Z" fill="#F7F2DA"/>
</svg>
