<svg id="Ñëîé_1" data-name="Ñëîé 1" xmlns="http://www.w3.org/2000/svg" viewBox="0 0 2600 2000"><defs><style>.cls-1,.cls-23,.cls-24{fill:#fff;}.cls-2{fill:#d4e8ff;}.cls-3{fill:#dce6ff;}.cls-4{fill:#eef7ff;}.cls-5{fill:#cfddf9;}.cls-6{fill:#fcb4b4;}.cls-7{fill:#eb5648;}.cls-8{fill:#3a72aa;}.cls-9{fill:#8a9edd;}.cls-10{fill:#7689d6;}.cls-11{fill:#f5faff;}.cls-12{fill:#b1d2ef;}.cls-13{fill:#f49f9f;}.cls-14{fill:#f9c0c0;}.cls-15{fill:#f99370;}.cls-16{fill:#103663;}.cls-17{fill:#e8c0a6;}.cls-18{fill:#0f2e54;}.cls-19{fill:#1d3f70;}.cls-20{fill:#e57d61;}.cls-21{fill:#23659b;}.cls-22{fill:#ce3932;}.cls-23{opacity:0.1;}.cls-24{opacity:0.2;}.cls-25{fill:#8e4a35;}.cls-26{fill:#c16256;}.cls-27{fill:#f9f8f3;}.cls-28{fill:#c92828;}.cls-29{fill:#a523a2;}.cls-30{fill:#ce4abf;}.cls-31{fill:#163860;}.cls-32{fill:#d8b09a;}.cls-33{fill:#d1a68f;}.cls-34{fill:#f4d4be;}.cls-35{fill:#8c4225;}.cls-36{fill:#7f341c;}.cls-37{fill:#99452b;}.cls-38{fill:#163260;}</style></defs><title>Business people writing agreement, shaking hands [Converted]</title><rect id="_6" data-name="6" class="cls-1" width="2600" height="2000"/><g id="_5" data-name="5"><path class="cls-2" d="M519.55,1652.94S235.82,936.63,440,777.13c136.47-106.61,281.13,128.41,453.79,4.08,153.71-110.69-60.59-389.54,195.88-462.48,269.58-76.67,490.44,544.25,716.64,458.4,274.47-104.18,547.5,107.3,311.55,877.18Z"/><path class="cls-3" d="M1198.29,90.85l-2,11.18a142.85,142.85,0,0,1,42,14.51l5.53-10A154.73,154.73,0,0,0,1198.29,90.85Zm-48.4-.53A117.7,117.7,0,0,0,1104.71,107l6.28,9.56a106.29,106.29,0,0,1,40.68-15Zm162.41,74c-.81-1-1.64-1.94-2.46-2.9q-8.77-10.19-17.77-18.95-4.6-4.51-9.24-8.6l-7.81,8.44q4.21,3.72,8.41,7.81c5.69,5.51,11.34,11.51,16.91,17.94,1,1.19,2.06,2.4,3.09,3.63s1.88,2.25,2.81,3.39l9.11-7.09C1314.33,166.73,1313.33,165.51,1312.3,164.29Zm-243-25.32a225.88,225.88,0,0,0-25.21,39.74l10.45,5A213,213,0,0,1,1078.49,146Zm290.76,95.4c-5.72-10.07-11.53-19.62-17.3-28.53l-4,2.44-5.88,3.63q2.79,4.31,5.59,8.82,5.79,9.33,11.56,19.46,3.06,5.4,6.11,11l10.29-5.34C1364.37,242,1362.24,238.13,1360.09,234.37Zm-334-12.67c-4.77,13.61-9.25,28.56-13.32,44.43l11.31,2.76c4-15.56,8.36-30.21,13-43.52Zm361.42,65.5L1376.9,292c6.18,13,12.49,27.09,18.75,41.77l10.76-4.36C1400.09,314.57,1393.72,300.36,1387.47,287.2Zm-384.78,24.05c-2.74,14.27-5.34,29.58-7.69,45.49l11.53,1.62c2.33-15.75,4.9-30.89,7.62-45Zm437.36,103.67c-3.76-10.24-7.38-19.9-11-29.21q-2.64-6.88-5.26-13.58l-6.31,2.36-4.58,1.69c4.45,11.36,8.91,23.07,13.57,35.63.87,2.37,1.76,4.78,2.66,7.21l11-3.84A2,2,0,0,1,1440.05,414.92Zm-451-12.5c-1.66,14.42-3.24,29.81-4.7,45.77l11.61,1c1.45-15.86,3-31.17,4.67-45.51Zm1008.2,43.7-1.08,11.32a149.93,149.93,0,0,1,43.41,10.92l4.53-10.47A162,162,0,0,0,1997.22,446.12Zm-48.45,5.33c-14.21,4.5-28.68,11.74-43,21.53l6.67,9.31c13.38-9.14,26.82-15.87,39.93-20ZM1466.1,488.5c-3.81-11.05-7.19-20.78-10.4-29.94l-11,3.69c4.12,11.75,8.52,24.43,13.74,39.67.43,1.22.86,2.47,1.29,3.72l11-3.61Zm619.68-7.3-6.85,9.18a273.1,273.1,0,0,1,34.51,29.41l8.34-7.93A284.11,284.11,0,0,0,2085.78,481.2ZM481.65,513.52l-1.57,11.26c13.66,1.82,27.95,6.32,42.49,13.39L527.76,528C512.09,520.38,496.58,515.51,481.65,513.52ZM980.58,494c-1.05,14.34-2.05,29.34-3.06,45.86l11.63.67c1-16.47,2-31.43,3.05-45.72Zm888.75,9.26a444.56,444.56,0,0,0-31.64,34.59l9,7.15a439.33,439.33,0,0,1,30.85-33.72Zm-1436.45,14c-14.64,4.38-29.12,11.84-43,22.19l7.06,9c12.82-9.53,26.07-16.38,39.38-20.36ZM2152.7,547.12l-9.29,6.86c8.91,11.5,17.67,24.06,26,37.36l9.93-6C2170.81,571.79,2161.84,558.92,2152.7,547.12Zm-1584.51,6-7.1,9a398,398,0,0,1,34.79,29.71l8.13-8.15A412.84,412.84,0,0,0,568.19,553.12Zm917.42-7.59L1474.83,549l-.26.08a.24.24,0,0,1,0,.08c2.45,7.17,5.16,15.06,8,23.28,2.27,6.58,4.62,13.36,7,20.14l8.17-2.72,2.85-.95C1495.27,573.7,1490,558.44,1485.61,545.53ZM355.34,572.08a350.86,350.86,0,0,0-28,37.54l9.81,6.12a342.52,342.52,0,0,1,27.14-36.34Zm1453.8,2.6c-8.17,11.2-16.88,23.63-26.6,38l9.71,6.26c9.66-14.25,18.29-26.58,26.38-37.66Zm-834.23,11c-.84,15.46-1.61,30.64-2.4,45.83l11.64.57c.78-15.18,1.55-30.36,2.39-45.81ZM636.64,617.19l-8.73,7.54c9.68,10.64,19.51,22,30.08,34.83l9.08-7.13C656.38,639.49,646.43,628,636.64,617.19Zm1565.79,8.52L2192,630.87c6.8,13,13.42,26.86,19.69,41.1l10.7-4.49C2216.08,653,2209.34,639,2202.43,625.71Zm-686.35,6.42-11,3.85c6,16.07,11.39,30.16,16.68,43.07l10.82-4.2C1527.39,662.05,1522,648.08,1516.08,632.13Zm240.83,19.06c-8.66,13.13-17.21,26.15-25.48,38.43l9.73,6.24c8.31-12.33,16.87-25.36,25.55-38.53ZM303.67,649.7q-10.86,20.35-20.45,41.57l10.66,4.59Q303.32,675,314,655Zm666.42,27.66c-1,17.47-1.86,32.43-2.75,45.75l9.35.59,2.28.14c.07-1,.13-1.94.18-2.92.84-12.62,1.67-26.7,2.57-42.95Zm-274,11.35-9.29,6.87c8.41,10.84,17.29,22.5,28,36.71l9.4-6.72C713.41,711.32,704.5,699.6,696.05,688.71Zm1543.76,21.6-10.94,3.89c5.18,13.86,10.18,28.36,14.89,43.08l11.12-3.37C2250.13,739,2245.06,724.34,2239.81,710.31Zm-688.73,6.29-10.53,4.86a349.19,349.19,0,0,0,22.84,40.86l9.78-6.19A336.79,336.79,0,0,1,1551.08,716.6Zm154,10.63a407.26,407.26,0,0,1-26.44,32.51c-.84.91-1.67,1.81-2.5,2.68l8.56,7.71q2.14-2.26,4.33-4.7c7.89-8.75,16.28-19.13,25.49-31.54ZM265.49,734c-5.38,14.2-10.46,28.89-15.09,43.65L261.53,781c4.57-14.55,9.58-29,14.88-43Zm1376.05,55.6c-13.53,6.25-26.07,6.24-38.81-1.61l-6.22,9.61a50.07,50.07,0,0,0,26.46,7.86,55.86,55.86,0,0,0,23.58-5.61ZM751.75,762.67l-9.43,6.67c8.47,11.38,18.29,24.57,27.76,37l9.36-6.76C770,787.19,760.2,774,751.75,762.67Zm212.1,6.09c-1.5,17-3.11,31.84-4.9,45.41l1.93.25,9.63,1.21c.54-4.1,1.06-8.31,1.57-12.66,1.19-10.22,2.31-21.2,3.38-33.23Zm1304,29.34L2256.63,801c3.88,14.33,7.61,29.21,11,44.23l11.37-2.49C2275.57,827.61,2271.81,812.58,2267.89,798.1ZM237.83,822c-3.72,14.67-7.12,29.8-10.15,45l11.44,2.17c3-15,6.35-29.92,10-44.4Zm587.22,34.74c-1.34-1.56-2.72-3.16-4.1-4.8q-6.3-7.46-13.18-16l-9.16,7c3.22,4,6.35,7.8,9.38,11.45v0c1.48,1.77,2.93,3.5,4.37,5.19,5.79,6.84,11.27,13.07,16.56,18.81l8.66-7.6C833.56,866.49,829.39,861.81,825.05,856.77Zm132.25,3.45-6-1.29a4.05,4.05,0,0,1-.12.5c-1,4.63-2.13,9-3.27,13.11-.86,3.1-1.74,6.06-2.66,8.87a125.55,125.55,0,0,1-8,19.55l10.38,5.17c1.55-3,3-6.15,4.44-9.6a191.29,191.29,0,0,0,8.2-25.26q1.23-4.74,2.38-9.9ZM897.83,919c-8.88-3.33-17.08-8.9-27.35-16.74l-7.36,8.8c11.61,8.89,20.92,15.1,31.22,18.82a67.76,67.76,0,0,0,12.89,3.27l1.24-11.29A55.69,55.69,0,0,1,897.83,919Zm1390.71-31.25-11.44,2.1c2.82,14.63,5.49,29.74,7.91,44.91l11.51-1.76C2294.08,917.74,2291.4,902.51,2288.54,887.76ZM219.81,912.36c-2.22,14.93-4.15,30.29-5.73,45.66l11.59,1.13c1.57-15.2,3.47-30.4,5.68-45.16Zm2083.28,66.12-11.56,1.42c1.92,14.81,3.68,30.05,5.24,45.32l11.59-1.13C2306.8,1008.73,2305,993.39,2303.09,978.48ZM210.35,1003.86c-.91,15-1.54,30.49-1.86,45.93l11.65.23c.31-15.29.94-30.59,1.84-45.5Zm2102.08,65.95-11.62.84c1.13,14.94,2.12,30.26,2.92,45.53l11.64-.58C2314.56,1100.25,2313.57,1084.84,2312.43,1069.81ZM220,1095.57l-11.64.17c.24,15.08.75,30.53,1.51,45.91l11.64-.55C220.77,1125.84,220.26,1110.52,220,1095.57Zm2097.23,65.86-11.64.34c.44,15,.74,30.34.87,45.63l11.65-.1C2318,1191.93,2317.7,1176.5,2317.25,1161.43ZM224.56,1186.58l-11.61.92c1.24,15,2.76,30.43,4.5,45.73L229,1232C227.3,1216.79,225.8,1201.52,224.56,1186.58ZM2306.44,1253c-.16,15-.48,30.37-.93,45.64l11.64.33c.47-15.34.78-30.77.94-45.85ZM234.83,1277.23l-11.54,1.57c2.14,15,4.54,30.24,7.13,45.39l11.49-1.88C239.33,1307.27,237,1292.1,234.83,1277.23Zm2068.91,67.08c-.72,15-1.59,30.37-2.57,45.59l11.62.72c1-15.27,1.86-30.68,2.59-45.79Zm-2053.53,22.9-11.44,2.16c2.95,14.88,6.15,30,9.51,45l11.38-2.44C256.32,1397,253.13,1382,250.21,1367.21ZM2306,1436.08l-8.14-.63c-.25,3-.5,6-.75,9-1,12.09-2.13,24.33-3.31,36.5l11.6,1.07c1.48-15.27,2.85-30.64,4.08-45.67ZM270.24,1456.35l-11.31,2.71c3.73,14.81,7.67,29.76,11.76,44.45l11.24-3C277.87,1485.94,273.94,1471.08,270.24,1456.35Zm2018.79,70c-1.08,9.62-2.23,19.39-3.42,29.16-.64,5.41-1.32,10.81-2,16.21l11.56,1.39c.68-5.38,1.35-10.78,2-16.16,1.2-9.84,2.34-19.67,3.43-29.37Zm-1990.31,31c-1.35-4.31-2.69-8.65-4-13l-11.16,3.24c1.25,4.13,2.53,8.25,3.81,12.35,3.34,10.66,6.76,21.22,10.19,31.5l11.07-3.53C305.28,1578,302,1567.77,298.72,1557.42Z"/><path class="cls-4" d="M2369,1418.66c-96.67-14-80.9,112.32-218.7,112.32-126,0-166.29-481-258-343.48-469.95,704.84-197.06-299.74-570.8-312.51-169-5.77-281.61,170-323.14,481.28-60.19,281.39-199.79-214.61-343.46-168.5C563.64,1217.08,574.09,1531,448.1,1531c-137.8,0-122-126.3-218.69-112.32-104.09,15-135.18,238.59-135.18,238.59H2504.17S2473.08,1433.71,2369,1418.66Z"/><path class="cls-3" d="M2283.39,1555.37c-88.94-6-74.42,48-201.2,48-115.9,0-112.72-120.86-190.28-146.55-142.84-47.31-260.6,192.11-316,72-105.18-318.83-411.94-478.71-553.45,0-55.38,120.16-184.88-94.24-316-72-80.69,13.72-74.38,146.55-190.29,146.55-126.77,0-112.26-53.93-201.19-48-95.76,6.43-124.36,101.88-124.36,101.88H2407.75S2379.15,1561.8,2283.39,1555.37Z"/><path class="cls-5" d="M94.23,1657.25s-14.5,49,54.93,62.5c180.54,35,454.42-10.89,264.43,103.9-92.72,56,431.87,90.8,1036.62,85.5,682.67-6,1023.18-46.42,806.41-102.35s301.35-33.23,247.55-149.55Z"/></g><g id="_4" data-name="4"><path class="cls-6" d="M675.05,797.71c-1.32,15.47-1.17,29.2.17,36.8q-10.28-11.4-19.51-21c5.61-7.28.54-83.27-7.65-83.48-7.87.76-3.14,65.64,1.43,77.08-7-7.1-13.47-13.42-19.48-19,5.72-5.36-18.15-86.22-25.7-83.94s12.25,67.79,19.13,77.88c-8-7.21-14.94-13.09-21-17.85,4.46-6.19-36.06-83.68-42.77-80-6.49,3.39,24.92,63.26,33.71,73.12-17.64-12.24-22.71-17.46-50.92-31.53-56.8-28.43-62.66-18.33-5.31,10.07C564.88,750.58,572.56,747,593,763.26c-11.71-3.84-87.58-5.4-88.24,1.92.53,7.39,87.83,8.3,94.22,2.7,6.32,5,13.77,11.29,22.33,19.08-10.41-3.32-88.7,2.59-88.53,10.28,1.33,7.36,86.81-.18,92.66-6.48,6.24,5.8,13,12.35,20.32,19.76-11.46-2.89-87.14,3-87,10.49,1.85,7.26,83.38,0,91.5-5.86Q660,825.22,671,837.27c-11.47-2.89-87.11,3-87,10.5,1.92,7.23,82.7.05,91.22-5.75q9,10.11,18.8,21.67C683.26,860.5,605.8,866.39,606,874c1.77,7.27,84,0,91.74-6,6.12,7.42,12.65,14.85,19,21.3-10.35-2.08-85.85,14.57-84.42,22.35,2.76,7.11,81.87-11.46,88.12-18.61a283.45,283.45,0,0,0,22.57,20.17c-8.15-2.87-86.12,20.83-83.62,28.69,2.29,7.3,85-19,86.35-26.53a251.47,251.47,0,0,0,31.13,20.79c-10.23.19-76.18,34.51-72.51,41.92,4.43,6.57,74.16-30.91,77.11-39.41a214.5,214.5,0,0,0,35,15c-10.28,2.33-66,46.63-61,53.35,5.71,5.84,65.17-42.71,66.4-51.68,31.42,9.16,52.56,7,53.47,6.9l-.54-5c-.22,0-20.8,2.08-50.85-6.54,6.08-8.56,12.28-78.94,4.2-80.66-8.46-.21-13.7,69.1-9.72,79a208.82,208.82,0,0,1-33.9-14.34c7.33-4.82,20.65-79.36,12.37-81.23-8.59-1.08-20.3,70.56-16.2,79.15A243.92,243.92,0,0,1,750,912.43c7.72-4,28.06-76.73,19.87-79.3-8.42-1.72-26.55,66.9-23.58,76.39a279.34,279.34,0,0,1-21.46-19.07c7.84-1.65,29-77.86,20.66-79.91C737,808.7,718.52,878.77,722,887.6c-6.16-6.22-12.41-13.1-18.51-20.46,7.57-6.26,26.86-75.26,18.89-78.2-8-1.55-24.8,60.59-23.68,72.49q-9.78-11.61-18.81-21.75c6.94-5.18,13.69-81.6,5.37-82.72C681.58,756.32,677,774.57,675.05,797.71Z"/><path class="cls-7" d="M1943.17,346.43c-14.76,0-27.63,1.1-34.44,2.74q9-9.19,16.43-17.41c6.52,4.06,77.19-5,76.61-12-1.65-6.31-61.47,1.9-71.77,6.6,5.51-6.21,10.37-12,14.65-17.3,4.41,4.63,76.87-20.18,74.1-26.69-1-2.83-18.53.71-39.18,7.91-13.16,4.59-24.39,9.55-30.57,13.28,5.5-7.08,9.9-13.25,13.39-18.53,5,3.9,71.74-34.51,67.71-40.32-3.78-5.16-54.79,24.51-63,32.86,8.49-15,12.67-19.07,21.46-44,17.25-48.41,6.8-52.13-10.24-3.62-9.45,24-4.73,30.14-16.51,47.64,1.78-10.35-9.46-72.4-16.16-72-6.89,1.44,6.95,73.1,13,77-3.66,5.52-8.31,12-14.22,19.59,1.44-9.38-17.25-72.76-24-71.53-6.68,2.23,14.85,71.67,21.26,75-4.41,5.5-9.43,11.49-15.17,18,.8-10.25-17.32-71.35-24-70.2-6.48,2.61,14,68.76,20.47,74.12-5.2,5.78-10.94,11.91-17.28,18.42.78-10.28-17.33-71.3-24-70.16-6.45,2.66,13.87,68.17,20.29,73.9q-8,8.06-17.16,16.84c1.19-9.72-17.28-72.24-24-71.05-6.52,2.55,14.18,69.23,20.6,74.28-5.87,5.46-11.61,11.21-16.76,17,.14-9.35-28.1-69.54-34.62-67.28-6.1,3.46,24.75,66.82,31.81,70.48a203.61,203.61,0,0,0-15.17,19.84c1.27-7.56-34.13-69.42-40.37-66.2s32.48,68.93,38.89,68.44A169.62,169.62,0,0,0,1830.91,439c-2.09-8.95-45.23-60.13-50.93-56.23-5.14,4.8,42,59.1,49.39,60a146.68,146.68,0,0,0-8.17,29.7c-4-8.59-54.83-50.9-59.77-46.11-4.21,5.63,51.64,50.8,59.13,50.46-3.44,26.33,2.06,43.48,2.3,44.22l4.16-1.37c-.06-.17-5.31-16.67-2.21-41.58,8,4.26,75.23,4.75,76-2.13-.86-6.83-66.59-6.41-75.32-2.36a140.65,140.65,0,0,1,7.86-28.72c4.71,5.5,77.08,11.51,77.8,4.51-.08-7-69.31-11.7-76.56-7.61a167.72,167.72,0,0,1,13.91-26.54c4.23,5.87,75.94,17.67,77.2,10.75.37-6.95-67-17-75.18-13.83a200.3,200.3,0,0,1,14.38-18.92c2,6.12,77.15,18.37,77.86,11.34.51-7-68.36-17.26-75.79-13.71,4.81-5.46,10.27-11.1,16.14-16.57,6.5,5.57,74.29,16.74,76,10,.18-6.62-60.66-16-71.51-14.22q9.24-8.81,17.24-16.88c5,5.18,77.84,5.72,78-1.32C1982.77,348.87,1965,346.43,1943.17,346.43Z"/><path class="cls-8" d="M864.71,514.44c17.91-20.83,30.12-39.7,27.26-42.15-7.19-4.8-60.83,58.41-64,69.95a184.63,184.63,0,0,0-16.53-35c8.94-2.71,55.56-80.17,48.14-84.95-7.94-3.52-50.16,69-50.87,80.57a213.4,213.4,0,0,0-23.5-30.17c8-.76,41.82-90.5,33.32-93.07s-38.83,81.48-35.64,90.62a259.28,259.28,0,0,0-23-21.28c7.92-6,32.43-91.16,24.11-94.05-8.56-1.32-30.45,79.09-28.28,90.71-7.62-6-16-11.91-24.42-17.39,6.86-7.57,18.07-94.68,9.44-96.36-8.59.07-17.91,81.23-14.35,93.09q-13.27-8.87-24.87-17.13c6.7-8.4,17.71-94,9.15-95.81-8.49.1-17.68,79.34-14.5,92-9.25-6.68-17.68-13-25.37-19,6.79-7.94,17.91-94.37,9.31-96.12-8.49.1-17.69,79.43-14.49,92-8.5-6.79-16-13.11-22.65-19,7.19-5.47,18.84-96.15,10.08-97.41-8.64,0-18,82.3-14.26,93.69-8.93-8.06-16.1-15.13-21.82-21.17,6.61-6,8.25-97.77-.59-98-8.38,1-8.88,80.06-4.45,92.57C593.57,312.5,598,303.8,581.19,276.2c-31.55-56.31-43.69-49.5-11.88,6.69,16.28,28.94,22.26,33,36,49.76-11.86-8.53-81.52-34.26-85-27-3.71,8.07,87.12,41.17,92.48,35.26,5.47,5.77,12.24,12.47,20.57,20-12.16-6.38-88.56-19.12-90.86-11.15-2,8.65,93,23.69,97.43,17,6.45,5.65,13.71,11.74,21.87,18.24-13.68-3.6-89.62-.82-90.21,7.34.85,8.78,90.1,4.72,97.35-1.72q11,8.55,24.1,18c-12.74-2.5-91.45,10.87-91,19.33,1.76,8.67,91.69-7.73,96.77-15.22q11.66,8.26,25,17.16c-13.72.11-87.12,24.92-85.39,33,3.62,8,84.93-20.45,91.84-28.77,8.45,5.51,16.42,11.3,23.56,17-9.9-2.81-93,24.84-90.81,33.34,2.42,8.54,92.7-22.84,93.87-30.86A250.66,250.66,0,0,1,778.73,474c-10.72-2.22-92.05,24.86-90,33.36,3.12,8.27,89.18-21.79,93.19-30a210.11,210.11,0,0,1,23,29.83c-9.78-3.51-94.55,17.31-93.07,26,2.44,8.49,90.58-14.55,95.28-22.39A177.86,177.86,0,0,1,823,544.56c-11.59-3.14-93.17,10.58-92.67,19.19,2.47,8.34,85.33-6.75,94.44-13.77,9.2,30.14,6.28,51.7,6.24,51.92l5.45.79c.14-1,3.23-23.36-6.71-55.2C835.72,544.91,849.84,531.72,864.71,514.44Z"/><path class="cls-9" d="M2052.19,675c-17.63-7.44-33.56-12.6-42.52-14.06q15.36-6.46,28.4-12.53c5.73,8.14,94.69,32.9,97.51,24.25,1.21-8.36-74.35-28.67-89-28.24,9.71-4.65,18.42-9.09,26.21-13.29,2.93,7.75,102,14.6,101.92,5.43.25-3.87-22.48-8.48-50.76-10.28-18-1.14-33.94-.87-43.19.47,10.13-5.68,18.48-10.84,25.32-15.39,4,7.19,103-5.09,101.16-14.06-1.93-8.06-77.78,1.69-91.76,7.53,17.7-13.67,24.73-16.4,47.76-41.7,45-49.13,34.36-58.83-10.4-9.48-23.36,23.88-20.82,33.61-43.7,48.58,7.34-11.46,25.14-91.23,16.94-94.11-9-1.75-28.5,90.79-23.27,98.43-7.15,4.75-16,10.21-26.84,16.25,6.44-10.49,16-95.58,7.33-97.52-9.1-.71-18.35,93.06-12.39,100.29-8,4.36-17.05,9-27.17,13.84,6.13-11.85,15.24-93.93,6.71-95.91-9.05-.15-17.84,89.19-12.87,98.83-9.12,4.27-19.06,8.71-29.91,13.29,6.11-11.89,15.21-93.88,6.69-95.86-9-.07-17.75,88.39-13,98.47q-13.57,5.61-29,11.48c6.32-11,15.74-95,7.1-96.95-9.07-.23-17.92,89.82-12.79,99.09-9.76,3.57-19.51,7.53-28.58,11.84,4.87-11.09,1.45-97.19-7.46-97.76-9,1.06-4.09,92.24,2.5,100.17a265.43,265.43,0,0,0-28.11,16.06c5.33-8.39-5.81-100.08-14.88-99.38s4.09,98.67,12,101.31a220.81,220.81,0,0,0-30.61,24.9c2-11.74-23.75-94.58-32.52-92.79-8.55,3.15,20.38,91.71,28.76,96.57a189.55,189.55,0,0,0-24.71,31.34c-.45-12.27-39.86-88.38-48.17-85.15-7.86,4.61,36.1,86.67,45.21,90-17.35,29.72-19.43,53-19.51,54l5.66.46c0-.23,2.06-22.59,18.29-50.77,7.45,9.13,87.45,43.54,91.79,35.69,2.41-8.58-76.29-41.17-88.76-40.74a183.18,183.18,0,0,1,23.84-30.34c2.86,8.95,86.26,52.56,90.64,44.56,3.43-8.39-76.88-48.87-87.6-47.64a218.37,218.37,0,0,1,30-24.69c2.09,9.14,81.79,59.34,86.79,51.71,3.93-8.12-71.46-54.08-82.83-54.37a258.07,258.07,0,0,1,26.7-15.35c-.69,8.32,82.88,60.78,87.27,52.74,4.12-8.08-72.94-55-83.61-54.53,8.5-4.11,17.86-8.08,27.62-11.67,5,9.93,80.29,57.39,85.71,50.17,3.55-7.81-64.39-49.64-78.23-53q15.47-5.87,29.08-11.48c3.32,8.68,90.08,46,93.8,37.68C2098.25,697.81,2078.3,686,2052.19,675Z"/></g><g id="_3" data-name="3"><path class="cls-9" d="M1851.07,358.09V1634.8a39.76,39.76,0,0,1-39.76,39.75H828.17a39.82,39.82,0,0,1-39.76-39.75V358.09a39.76,39.76,0,0,1,39.76-39.75h983.14A39.76,39.76,0,0,1,1851.07,358.09Z"/><path class="cls-10" d="M1851.07,358.09V1634.8a39.76,39.76,0,0,1-39.76,39.75H828.17a39.76,39.76,0,0,1-39.48-35.06l-.28-4.69s988.12-49.51,988.12-1316.46h4.11C1820.15,315.89,1848.91,316.86,1851.07,358.09Z"/><rect class="cls-1" x="862.95" y="378.9" width="913.58" height="1200.52"/><path class="cls-11" d="M1776.53,378.9V1579.42H1037.79C1323,1477.1,1756.4,1188.56,1775.85,378.9Z"/><path class="cls-12" d="M1608.5,995.81c-80.21-1.44-80.2-120.64,0-122.07C1688.72,875.18,1688.7,994.38,1608.5,995.81Zm0-112.26c-67.31,1.21-67.3,101.25,0,102.45C1675.82,984.79,1675.81,884.75,1608.5,883.55Z"/><path class="cls-7" d="M1615.05,963.31c-5.87,2.13-35.45-32.87-39.74-35.67-9-9.11,4.76-22.92,13.88-13.88l25.86,25.85,58.15-58.15c9.1-9,22.92,4.75,13.88,13.88C1684.36,896.62,1618,968.37,1615.05,963.31Z"/><path class="cls-12" d="M1608.5,1245.83c-80.21-1.44-80.2-120.65,0-122.07C1688.72,1125.19,1688.7,1244.4,1608.5,1245.83Zm0-112.26c-67.31,1.21-67.3,101.25,0,102.44C1675.82,1234.81,1675.81,1134.77,1608.5,1133.57Z"/><path class="cls-7" d="M1615.05,1212.41c-5.85,2.15-35.47-32.87-39.74-35.67-9-9.1,4.76-22.92,13.88-13.88l25.86,25.86,58.15-58.15c9.1-9,22.92,4.75,13.88,13.88C1684.25,1145.78,1618.14,1217.38,1615.05,1212.41Z"/><path class="cls-12" d="M1608.5,1495.84c-80.21-1.43-80.2-120.64,0-122.07C1688.72,1375.21,1688.7,1494.42,1608.5,1495.84Zm0-112.25c-67.31,1.2-67.3,101.24,0,102.44C1675.82,1484.82,1675.81,1384.78,1608.5,1383.59Z"/><path class="cls-7" d="M1615.05,1461.52c-5.85,2.15-35.47-32.87-39.74-35.67-9-9.11,4.76-22.92,13.88-13.88l25.86,25.86,58.15-58.15c9.1-9,22.92,4.75,13.88,13.87C1684.25,1394.89,1618.14,1466.48,1615.05,1461.52Z"/><path class="cls-6" d="M1609.08,293.83H1501.7V231.5a27.26,27.26,0,0,0-27.27-27.27H1165.05a27.26,27.26,0,0,0-27.27,27.27v62.33c-136.88,6.28-137.7-34.19-134.64,105.78a27.26,27.26,0,0,0,27.26,27.28h578.68a27.28,27.28,0,0,0,27.27-27.28v-78.5A27.27,27.27,0,0,0,1609.08,293.83Zm-289.34-17.51c-23.39-.39-23.38-35.19,0-35.59C1343.12,241.14,1343.12,275.93,1319.74,276.32Z"/><path class="cls-13" d="M1636.35,321.11v78.5a27.28,27.28,0,0,1-27.27,27.28H1030.4a27.28,27.28,0,0,1-27.27-27.28s471.3,25.94,471.3-195.38a27.26,27.26,0,0,1,27.27,27.27v62.33h107.38A27.27,27.27,0,0,1,1636.35,321.11Z"/><path class="cls-14" d="M1319.74,204.23c-169.29,0-182,89.6-182,89.6V231.5a27.26,27.26,0,0,1,27.27-27.27Z"/><rect class="cls-10" x="952.67" y="498.03" width="311.85" height="304.63"/><ellipse class="cls-3" cx="1108.6" cy="608.21" rx="66.69" ry="65.96"/><path class="cls-3" d="M1208.16,784.69V803H1009V784.69a99.56,99.56,0,1,1,199.12,0Z"/><path class="cls-9" d="M1705.71,561.71H1535.87a12.5,12.5,0,0,1,0-25h169.84a12.5,12.5,0,0,1,0,25Z"/><path class="cls-9" d="M1491.64,561.71H1369.47a12.5,12.5,0,0,1,0-25h122.17a12.5,12.5,0,0,1,0,25Z"/><path class="cls-9" d="M1705.71,640.1H1369.47a12.5,12.5,0,0,1,0-25h336.24a12.5,12.5,0,0,1,0,25Z"/><path class="cls-9" d="M1705.71,796.87H1369.47a12.5,12.5,0,0,1,0-25h336.24a12.5,12.5,0,0,1,0,25Z"/><path class="cls-9" d="M1705.71,718.48h-84.18a12.5,12.5,0,0,1,0-25h84.18a12.5,12.5,0,0,1,0,25Z"/><path class="cls-9" d="M1580.49,718.48h-211a12.5,12.5,0,1,1,0-25h211a12.5,12.5,0,1,1,0,25Z"/><path class="cls-9" d="M1474.57,909H1156.15a12.5,12.5,0,0,1,0-25h318.42a12.5,12.5,0,0,1,0,25Z"/><path class="cls-9" d="M1108.6,909H952.09a12.5,12.5,0,1,1,0-25H1108.6a12.5,12.5,0,0,1,0,25Z"/><path class="cls-9" d="M1474.57,1005.58H1336.92a12.5,12.5,0,0,1,0-25h137.65a12.5,12.5,0,0,1,0,25Z"/><path class="cls-9" d="M1286.89,1005.58H952.09a12.5,12.5,0,0,1,0-25h334.8a12.5,12.5,0,0,1,0,25Z"/><path class="cls-9" d="M1474.57,1488.34H952.09a12.5,12.5,0,1,1,0-25h522.48a12.5,12.5,0,0,1,0,25Z"/><path class="cls-9" d="M1474.57,1391.79H1213.33a12.5,12.5,0,0,1,0-25h261.24a12.5,12.5,0,0,1,0,25Z"/><path class="cls-9" d="M1175.29,1391.79H952.09a12.5,12.5,0,0,1,0-25h223.2a12.5,12.5,0,0,1,0,25Z"/><path class="cls-9" d="M1474.57,1295.24H952.09a12.5,12.5,0,1,1,0-25h522.48a12.5,12.5,0,0,1,0,25Z"/><path class="cls-9" d="M1474.57,1198.69H1340a12.5,12.5,0,0,1,0-25h134.59a12.5,12.5,0,1,1,0,25Z"/><path class="cls-9" d="M1299.2,1198.69H1168.4a12.5,12.5,0,0,1,0-25h130.8a12.5,12.5,0,1,1,0,25Z"/><path class="cls-9" d="M1122.45,1198.69H952.09a12.5,12.5,0,0,1,0-25h170.36a12.5,12.5,0,1,1,0,25Z"/><path class="cls-9" d="M1474.57,1102.14H952.09a12.5,12.5,0,1,1,0-25h522.48a12.5,12.5,0,0,1,0,25Z"/></g><g id="_2" data-name="2"><path class="cls-15" d="M2135,1861.5l1.19-.62c0,.83,1,3.72,1.86,3.72l35.15.73c.83,0,1.35-1.57,1.35-2.4l3-.86c0-5.27-.43-7.17-2.75-11.25-8.55-11.36,1.65-62.16,1.36-75.43,2.1-3.63-37-.78-37.57-1.64a1.51,1.51,0,0,0-1.5,1.63l4.6,58C2143.76,1844.45,2135.3,1851.11,2135,1861.5Z"/><path class="cls-15" d="M1961.14,1866.56h70c6.11-.25,6.06-6.48,4.94-11.32-3.86-17.42,3-57.43,4.22-75.35a5.57,5.57,0,0,0-5.54-6.14c-51.66-.52-34.81-4.66-30.8,51.08,3,19.46-20.17,23.17-33.41,25.33C1961.85,1850.79,1947.27,1862.69,1961.14,1866.56Z"/><path class="cls-16" d="M2038.76,1859.29c-.19,3.44-1.89,7.35-5.86,7.27h-72.64c-17.13-6.35,7.49-29.08,41-28.94,15.36,4.21,33.67,1.29,33.67,1.29S2039.89,1845.21,2038.76,1859.29Z"/><path class="cls-16" d="M2172,1866.56h-31c-15.13-2.07-4.32-28.91,15.52-29.73S2187.1,1864.52,2172,1866.56Z"/><path class="cls-17" d="M1977.58,1856.73a1.54,1.54,0,0,1-1.43-1c-2.79-6.89-7.83-9-8-9.09-3.92-6.19,7.48-1.78,10.9,7.93A1.55,1.55,0,0,1,1977.58,1856.73Z"/><path class="cls-17" d="M1989.57,1855.28a1.53,1.53,0,0,1-1.47-1.08,21.32,21.32,0,0,0-9.49-11.7c-3.56-7.2,9.71.51,12.44,10.78A1.56,1.56,0,0,1,1989.57,1855.28Z"/><path class="cls-17" d="M2003.22,1853.6a1.53,1.53,0,0,1-1.46-1,27.81,27.81,0,0,0-9.6-12.84C1988.22,1829.09,2010,1850.76,2003.22,1853.6Z"/><path class="cls-17" d="M2167.59,1846.8c-8.62-5.24-21.85-.52-21.9-.14-9-1.94,12.29-9.54,22.68-2.74A1.55,1.55,0,0,1,2167.59,1846.8Z"/><path class="cls-18" d="M1955.18,1859.29h83.58a19,19,0,0,1-2.29,7.27h-76.21A5.4,5.4,0,0,1,1955.18,1859.29Z"/><path class="cls-18" d="M2172,1866.56h-31a6.87,6.87,0,0,1-6.88-7.27h44.81A6.89,6.89,0,0,1,2172,1866.56Z"/><path class="cls-19" d="M2011.11,1328.4c-68.35,52.17-153.92,40.51-202.41,4.22l-2.53-24.8c111.85,8.67,139.54-52.47,211-77.53l-7.75,23.15S2011.87,1326.72,2011.11,1328.4Z"/><path class="cls-8" d="M1994.92,1820.09c26.34,9.88,55.55,2.35,55.55,2.35-.37-3.56-.71-7.18-1-10.85-9.95-123.29,23.35-297,26.77-309.7v0c.16-.6.26-.83.27-.64,21.87,142.88,43.53,261.36,53.69,316.68,26,12.13,52.3-5.24,52.3-5.24.16-5,.29-9.89.41-14.76,6-96-7.71-390.58-57.31-448.1-57.52,28.54-136.62,33-136.62,33C1975.76,1633.92,1976.4,1754,1994.92,1820.09Z"/><path class="cls-15" d="M2024,1227.73c-3.28-17.34-11.24-48.54,1.8-56.23,9.19-5,22.13,1.34,21,12.83-1-.4,1.48,31.42,4.9,39.79C2078.73,1227.5,2005.59,1265.94,2024,1227.73Z"/><path class="cls-20" d="M2046.82,1182.86a14.37,14.37,0,0,1,0,1.47c-.71-.31.42,17.28,2.52,29.84-10.89,7.35-24.11,7.07-26.6,7-3.54-18.45-9.38-41.17,3.1-49.65C2034.36,1166,2046.75,1172.56,2046.82,1182.86Z"/><path class="cls-21" d="M2012.5,1815.11c-32.52-151.71.56-350.87,5.53-352.33C2020.58,1464,1991.68,1664.12,2012.5,1815.11Z"/><path class="cls-21" d="M2155.38,1812.66l-2.29-1c-25.39-161.45-53.22-354.7-49.7-357.46C2107.21,1454.71,2137.06,1647.42,2155.38,1812.66Z"/><path class="cls-16" d="M2157,1433.82c-38.29,29-132.14,38-170.37,24.16-12.89-5.46-14.7-48.87-13.2-91.51,2.29-56.83,16.14-97.92,42.37-135.9a48.41,48.41,0,0,1,8.17-2.83c-.13,5.19,1.06,20.2,27.68-3.62.12.1,6.85-.4,9.75.29,3.11.73,32,20.5,32.75,23.55,2.17,9.12,11.91,31.69,22.55,58,12.31,30.76,24.92,62.27,30.34,91.08C2149.18,1409,2164.62,1422.53,2157,1433.82Z"/><path class="cls-21" d="M2038.8,1810.06l10.67,1.53c-9.95-123.29,23.35-297,26.77-309.7-2.08,5.1-15.66,39.92-25.77,104.62C2039.5,1676.78,2036.08,1774.44,2038.8,1810.06Z"/><path class="cls-19" d="M2061.68,1224.41c-8.76,14.94-47.45,38.23-45.86,6.18a45.29,45.29,0,0,1,8.18-2.85c-.06.84-1.59,22.89,27.69-3.62C2051.65,1224.34,2056.19,1222.62,2061.68,1224.41Z"/><path class="cls-21" d="M2050.47,1822.44s-29.21,7.53-55.55-2.35l-3.44-13.85s33,11.45,57.45-1.21Q2049.64,1813.79,2050.47,1822.44Z"/><path class="cls-21" d="M2182.92,1797.91q-.18,7.29-.41,14.76s-26.34,17.38-52.3,5.24c0,0-.85-4.55-2.38-12.88C2127.83,1805,2155.79,1813.38,2182.92,1797.91Z"/><path class="cls-19" d="M2061.68,1224.41s75.41,0,97.89,95.94C2177.76,1398,2136,1441.76,2056,1463.49a19.64,19.64,0,0,0-13.25-13s38.27-29.55,47.9-64.9.67-76.63-13.41-106.37C2077.26,1279.19,2056.22,1246.66,2061.68,1224.41Z"/><rect class="cls-7" x="1926.53" y="1185.36" width="28.31" height="463.58" transform="translate(-348.51 2148.03) rotate(-53.85)"/><rect class="cls-22" x="2015.72" y="1361" width="28.31" height="242.65" transform="matrix(0.59, -0.81, 0.81, 0.59, -364.56, 2246.77)"/><circle class="cls-23" cx="1615.3" cy="1181.16" r="170.17" transform="translate(-362.1 1488.14) rotate(-45)"/><path class="cls-24" d="M1441.74,1243a183.51,183.51,0,0,0,25.24,47.6l10.11-10.11,10.18-10.18,217.19-217.19,20.29-20.29-2-1.42a183.84,183.84,0,0,0-45.57-23.9l-11.16,11.17-11.47,11.47h0l-190.21,190.22-11.51,11.5Z"/><path class="cls-24" d="M1484,1310.51a185.11,185.11,0,0,0,70.85,44.79l11.22-11.22,11.54-11.54,189.11-189.12,11.5-11.49,11.27-11.27a182.36,182.36,0,0,0-44.8-70.86l-20,20L1504,1290.48l-10,10Z"/><path class="cls-22" d="M1554.81,1355.29c124.78,48.37,268.94-70.51,242.37-204-23.75-158.93-237.65-211-331.61-77.64C1392.75,1171.58,1441.55,1318.31,1554.81,1355.29Zm169.82-285.47c113,110.67,4.66,301-147.06,262.72-53.88-12.58-100.07-58.16-113.2-112.15C1424.38,1069.1,1613,959.81,1724.63,1069.82Z"/><path class="cls-15" d="M1792.64,1330.82c-7.19,5.81-13.55-4.21-3.5-5.33l-.13.09C1793,1322.5,1796.4,1328,1792.64,1330.82Z"/><path class="cls-15" d="M1787.59,1327.17c-9.33,5-12-7.59-3-5.91-.2,0,.86-.21.67-.19C1789.82,1318.82,1791.61,1325.3,1787.59,1327.17Z"/><path class="cls-15" d="M1782.17,1323.52l-3.47.66c-4.87.76-4.22-6.35-.14-6.85l3.47-.67C1786.9,1315.9,1786.25,1323,1782.17,1323.52Z"/><path class="cls-15" d="M1778,1319.61l-3.47.67c-4.88.75-4.23-6.35-.15-6.86l3.47-.67C1782.7,1312,1782.05,1319.1,1778,1319.61Z"/><path class="cls-15" d="M2014.58,1455.13l6.8,4.91-.09.14a34.4,34.4,0,0,1-11.53,10.88,110.3,110.3,0,0,1-13.84,7.18c-6.48,9.71,20.06-2,23.36-2.72l0,.11a160.84,160.84,0,0,1-19.32,14.68c-4.38,11.61,21.24-7.93,24.29-9.67l0,0a94.64,94.64,0,0,1-16.56,16.18c-3.38,12.16,21-9.8,23.37-12.48l.09,0a97.76,97.76,0,0,1-10.84,15c-1.61,12,16.72-10.38,18.54-13.06,1.94-1.07,11.41-10,17.08-22.88,1.86-4.22-9.48-15.39-13.25-13-2.84,1.76-12,1.76-14,2.34C2024.16,1453.45,2019.37,1453.32,2014.58,1455.13Z"/><path class="cls-19" d="M2030,1273.69c-12.06,0-18.83-2.26-19.25-2.41l1.5-4.36c.14,0,14.65,4.82,39.17-.08l.91,4.52A113.4,113.4,0,0,1,2030,1273.69Z"/><path class="cls-19" d="M2031.92,1291.46c-15.07,0-24.06-3.5-24.58-3.71l1.71-4.29c.17.07,16.68,6.44,42.33,1.45l.88,4.54A106.49,106.49,0,0,1,2031.92,1291.46Z"/><path class="cls-19" d="M2029,1309.08a64.57,64.57,0,0,1-23.33-4l1.79-4.26a66.17,66.17,0,0,0,43.57,0l1.52,4.36A71.38,71.38,0,0,1,2029,1309.08Z"/><path class="cls-25" d="M1998.7,1159.69s1-14.74,6.16-24.68l8.23,4.58Z"/><path class="cls-15" d="M1996.21,1202.87c12.49,13.51,33,16.53,48.39,8.79h0a28.16,28.16,0,0,0,3.28-2.11h0c49.58-45-10.36-125.94-43.09-59.71C1993.94,1168.41,1976.23,1177.74,1996.21,1202.87Z"/><path class="cls-26" d="M2018.51,1165.47a1.89,1.89,0,1,1,2.5,1A1.89,1.89,0,0,1,2018.51,1165.47Z"/><path class="cls-26" d="M2002.76,1162a1.89,1.89,0,0,1,1-2.5,1.89,1.89,0,1,1,1.54,3.45A1.89,1.89,0,0,1,2002.76,1162Z"/><path class="cls-26" d="M2006.84,1178.59a7.79,7.79,0,0,0,3.2-.07.71.71,0,1,0-.37-1.38c-2.43.64-5.76-.73-6.17-1.84-.15-.39.38-.75.86-1,4.16-2,7.28-9.51,7.41-9.83a.71.71,0,0,0-.4-.93.71.71,0,0,0-.93.39c0,.07-3,7.33-6.7,9.08-2,1-1.78,2.24-1.59,2.75C2002.64,1177.12,2004.68,1178.22,2006.84,1178.59Z"/><path class="cls-20" d="M2007.24,1145.28c10.52-4.87,28.85,1,38,1.42,0,0-2.75,15.5,12.42,27.43.59,14.41,2.62,20.8-13,37.53h0a28.16,28.16,0,0,0,3.28-2.11h0C2095.62,1166.69,2040.55,1086.42,2007.24,1145.28Z"/><path class="cls-25" d="M2001.11,1113.79c6.48-11.29,24.26-16.68,38.57-1.57,11,11.65,23.55,12.21,22.68,23.82,22.72,11.78,9.84,36.79,9.84,36.79l-11.59-2c-12.76-11.47-11.53-27.29-11.53-27.29h0a30.8,30.8,0,0,1-8.83-1.15c-8.46-2.64-21.11-4.36-31-1.3S1993.86,1126.4,2001.11,1113.79Z"/><path class="cls-15" d="M2073.37,1182.32c-1.58,5.92-6.72,9.69-11.49,8.42s-7.36-7.09-5.79-13,6.72-9.69,11.49-8.43S2074.94,1176.4,2073.37,1182.32Z"/><path class="cls-26" d="M2062.33,1173.79c.19-.06,4.7-1.54,7.07.89a4.64,4.64,0,0,1,1.17,2.41h0a2.14,2.14,0,0,1,.06.27h0a15.61,15.61,0,0,1-1.21,7.17.71.71,0,0,1-.79.46l-.12,0a.71.71,0,0,1-.43-.92,16,16,0,0,0,1.18-5.86c-4.16.53-6.47,5-6.49,5.08a.71.71,0,0,1-.77.39.7.7,0,0,1-.19-.06.72.72,0,0,1-.33-1c.11-.22,2.63-5.26,7.51-5.9a2.9,2.9,0,0,0-.61-1.06c-1.74-1.79-5.56-.54-5.59-.53a.72.72,0,0,1-.46-1.36Z"/><path class="cls-26" d="M2028.36,1163.35a.81.81,0,0,0,.46,0,.85.85,0,0,0,.45-1.1,15,15,0,0,0-10.41-8.15.84.84,0,0,0-1,.63.85.85,0,0,0,.64,1,13.29,13.29,0,0,1,9.23,7.16A.84.84,0,0,0,2028.36,1163.35Z"/><path class="cls-26" d="M2002.45,1156a.84.84,0,0,0,.73-.24c2.28-2.25,6.87-1.8,6.91-1.79a.85.85,0,0,0,.93-.75.83.83,0,0,0-.75-.92c-.22,0-5.42-.56-8.27,2.27a.84.84,0,0,0,0,1.19A.86.86,0,0,0,2002.45,1156Z"/><path class="cls-27" d="M2002.48,1187l18.07-8.19s.61,9.67-6.5,12C2007.26,1192.92,2002.48,1187,2002.48,1187Z"/><path class="cls-26" d="M2002.35,1187.8a.81.81,0,0,0,.48-.06l18.07-8.19a.85.85,0,0,0,.42-1.12.83.83,0,0,0-1.11-.41l-18.07,8.19a.84.84,0,0,0,.21,1.59Z"/></g><g id="_1" data-name="1"><path class="cls-9" d="M716.65,1573.24,625.5,1606.8a3,3,0,0,1-3.88-1.8c.9-1.91-30.91-74.25-24.38-73.93.08-.24,91.3-33.5,91.48-33.7a3,3,0,0,1,3.88,1.79l25.84,70.19A3,3,0,0,1,716.65,1573.24Z"/><rect class="cls-1" x="612.67" y="1516.88" width="91.33" height="69.5" transform="translate(-495.58 323.04) rotate(-20.21)"/><path class="cls-6" d="M717.73,1542.3c-2-5.5-6.1-16.58-8.13-22.08-1-3-5.35,0-7.11.4l-2.83-7.66a2.07,2.07,0,0,0-2.66-1.23l-4.12,1.52c-1.48.4-3.44,1.33-2.71,3.21l15.21,41.31c.65,1.86,2.77,1.36,4.14.68,1.56-.87,6.49-1.31,5.36-4.18l-2.82-7.67C713.64,1545.74,718.89,1545.21,717.73,1542.3Zm-8.41-10.89a1.36,1.36,0,0,1,.94,2.55A1.36,1.36,0,0,1,709.32,1531.41Z"/><path class="cls-13" d="M713.65,1556.93c-1.88.23-7.21,4.07-8.27.84l-15.22-41.32a2.08,2.08,0,0,1,1.24-2.66s10.53,34.33,26.33,28.51c1.17,2.9-4.1,3.45-5.68,4.3l2.83,7.67A2.08,2.08,0,0,1,713.65,1556.93Z"/><path class="cls-28" d="M561.12,1246.89s-1.71,30,12.68,47.69-92.4-4.06-92.4-4.06L493,1234.69Z"/><path class="cls-29" d="M635.87,1493a46,46,0,0,1-18.06,12.5c-12.28-16-28.27-36.69-37.95-55-15.22-42.73-31.82-128.94-40.41-166.15C614.52,1296.82,613,1432.8,635.87,1493Z"/><path class="cls-15" d="M663.14,1514.33a2,2,0,0,1-2.86,1.05,48.39,48.39,0,0,0-10.68-3.62L623,1521.5s-4.59-10-4.31-15.14c.27-5,13.3-14.29,17.59-12.83,0,0,3.52,5.25,12.21,10.74C651.26,1506,664.59,1510.12,663.14,1514.33Z"/><path class="cls-30" d="M636.32,1493.53a41.45,41.45,0,0,1-17.59,12.83,13.12,13.12,0,0,1-5-6.17s15.33-5.56,19.39-14.77A14.61,14.61,0,0,1,636.32,1493.53Z"/><path class="cls-20" d="M705.76,1390.49s12.06-1.7,19.65-1.25l-8.57,17.15s-17-8.13-17.78-10S705.76,1390.49,705.76,1390.49Z"/><path class="cls-15" d="M483,1861.46a6.61,6.61,0,0,1-6.29,5.1H445.74a6.64,6.64,0,0,1-6.25-8.53c2.39-8,7.9-16,6.81-24.64-.23-16.87.06-50.86,0-61.89h34.87c-.68,9.45-3.87,47-4.94,63.12C474.91,1844.49,483.21,1852.12,483,1861.46Z"/><path class="cls-15" d="M528.11,1331.7c-8.26,20.56-13.74,53.58,10.8,65.06,37.07,14.73,80.12,12.41,118,1.37,2.11-.65,4.26-1.39,6.32-2.14l.3-.1,4.13-.15c10-.7,14,13.78,5.22,18.35-1.06.54-2.88,1.69-3.92,2.21-43.94,23.19-121.36,40.39-165.31,10.57-35.74-24.5-39.13-74-28.62-112.42C486.33,1278.35,540.19,1295.84,528.11,1331.7Z"/><path class="cls-15" d="M650,1861.46a5.62,5.62,0,0,1-5.58,5.1H567.09c-.82-7.86,1.83-15,1.4-23.67,0,0,0,0,0,0,.35-22.88-4.32-50.67-6-71.38h44.43c-.49,8.83-6.92,45.73-7,61.54,4.71,17.79,30.42,12.26,42.23,19.24C645.68,1854.23,650.18,1857.09,650,1861.46Z"/><path class="cls-7" d="M650.37,1861.46a5.27,5.27,0,0,1-5.27,5.1h-78c-.92-7.87,1.13-15.74,1.4-23.67,0,0,0,0,0,0a50.37,50.37,0,0,0,0-6c25.15,30.38,70.4,2,81.36,22.27h0A5.17,5.17,0,0,1,650.37,1861.46Z"/><path class="cls-7" d="M483.08,1861.46a6.57,6.57,0,0,1-6.41,5.1H445.74c-9-.63-6.86-10.47-3.31-16.12,0,0,17.26-14,37.54,0C481.7,1853.74,483.65,1857.65,483.08,1861.46Z"/><path class="cls-19" d="M438.85,1831.17s25.14,9.32,42.61,1.7c10.63-56.78,41.43-171.35,51.91-282,0-4.47,34.69,155.64,25.82,278.4,11.09,3.92,35.19,9.91,46.39.63,8.08-57.8,29.74-221.61-3.82-395.22,0,0-71.27,9-134.38-7.47,0,0-27.54,47.49-20.6,149.08C452.57,1674.89,448.24,1773,438.85,1831.17Z"/><path class="cls-20" d="M939.75,1296.18c-9.49,14.13-25.5,35.32-35.6,49.32-23.47,31.8-40.09,61.38-80.75,73.25-24.34,7.4-49.42,6.83-73.33,1.42a167,167,0,0,1-32.73-11,10.44,10.44,0,0,1,4.56-19.91c38.68.53,85.94-2.36,108.56-38,2.38-4,4.56-8.18,6.95-12.22,16.56-28.26,35.6-55.5,59.09-78.5C921,1234.5,960.29,1267.44,939.75,1296.18Z"/><path class="cls-31" d="M446.22,1824.1c5.48-48.34,16.33-152.42,12.23-218.38-2.2-66.83,7.32-100.6,7.41-100.94,1.23-2.19,24.51-12.47,34.51-38,.68-1.85,3.72-.84,3,1.12-8.77,23.29-30.54,36.15-34.6,38.39C454,1562.27,469.64,1763.47,446.22,1824.1Z"/><path class="cls-30" d="M607.64,1467.34c-36.74,23.07-125,10.87-154.55,2.32-6.75-18.15,11.14-42.35,7.5-65.35-8.5-53.76,18.67-107.06,50.62-118.51,0-.16,0-2.92,0-2.79l28.69,1.71c14.52,10.34,27.27,21.9,41.29,41.81,21.19,30,5.26,44.77,11.43,73.28C593.81,1413.63,616.37,1460.82,607.64,1467.34Z"/><path class="cls-32" d="M511.24,1285.79l-.1,0C511.14,1285.6,511.17,1285.58,511.24,1285.79Z"/><path class="cls-19" d="M893.86,1364.36c-19,87.2-134.49,67.84-171.23,47.2,6.53-8.56,2.78-22.32,2.78-22.32,127.68-4,112.14-114,179.42-136.72C904.83,1252.52,909,1315.14,893.86,1364.36Z"/><path class="cls-15" d="M972.29,1861.71l1.22-.6c0,.8,1,3.57,1.9,3.57l36,.69c.85,0,1.38-1.5,1.38-2.3l3.07-.82c0-5-.45-6.88-2.83-10.79-8.75-10.76,1.69-59.6,1.4-72.34,1.72-3.54-37.79-.71-38.48-1.57a1.49,1.49,0,0,0-1.54,1.56c-.39,12.66,9.46,61.66,1.07,72.33C973.11,1855.36,972.28,1856.65,972.29,1861.71Z"/><path class="cls-15" d="M816.21,1866.56h71.72c6.15-.23,6.26-6,5.06-10.85-4-16.72,3-55.09,4.32-72.28a5.48,5.48,0,0,0-5.67-5.88c-52.24-.2-36-5.63-31.56,49,2.23,20.23-20.55,21.6-34.21,24.3-5.62,1.32-11.62,3.4-14.37,7.37C808.92,1861.75,811.62,1866.56,816.21,1866.56Z"/><path class="cls-16" d="M895.72,1859.59c-.22,3.43-2,7-6,7h-74.4c-18.58-5.36,8.74-29.63,42.05-27.74,2.64.6,19.62,2.4,34.46.48A37.73,37.73,0,0,1,895.72,1859.59Z"/><path class="cls-16" d="M1010.16,1866.56H978.37c-15.33-1.62-4.61-27.66,15.89-27.81C1015.55,1838.6,1025.43,1865.06,1010.16,1866.56Z"/><path class="cls-17" d="M833.05,1857.18a1.53,1.53,0,0,1-1.41-.92,16.58,16.58,0,0,0-8.24-8.71,1.53,1.53,0,0,1,1.06-2.86,19.25,19.25,0,0,1,10,10.35A1.54,1.54,0,0,1,833.05,1857.18Z"/><path class="cls-17" d="M845.33,1855.79a1.53,1.53,0,0,1-1.45-1c-2.51-7.58-9.64-11.16-9.72-11.2a1.53,1.53,0,0,1,1.34-2.75c.34.17,8.36,4.15,11.28,13A1.53,1.53,0,0,1,845.33,1855.79Z"/><path class="cls-17" d="M859.31,1854.18a1.53,1.53,0,0,1-1.43-1,27,27,0,0,0-9.83-12.3,1.53,1.53,0,0,1,1.61-2.6,29.8,29.8,0,0,1,11.08,13.83A1.53,1.53,0,0,1,859.31,1854.18Z"/><path class="cls-31" d="M893.86,1364.36c-14.65,65.92-83.58,64.42-83.58,64.42s23-10.07,29.94-50.26,33-80.57,33-80.57Z"/><path class="cls-17" d="M1005.66,1847.65c-11.94-6.41-23,2.07-24.49-.93a1.53,1.53,0,0,1,.81-2c.56-.23,13.82-5.74,24.42.07A1.54,1.54,0,0,1,1005.66,1847.65Z"/><path class="cls-18" d="M810.11,1859.59h85.61a17.64,17.64,0,0,1-2.35,7H815.31C811.47,1866.56,808.74,1863,810.11,1859.59Z"/><path class="cls-18" d="M1010.16,1866.56H978.37a6.8,6.8,0,0,1-7-7h45.89A6.8,6.8,0,0,1,1010.16,1866.56Z"/><path class="cls-17" d="M1019.45,1828.57s-33.91,7.71-51.38-.58c-9.09-53.38-34.34-202.07-43.13-304-.34,5.94-18.81,245.52-22.32,304-12.08,3.79-36.32,8.33-49.89-.82-6.1-61.49-25.68-264,3.81-429.36,0,0,80.82,8.42,143.93-9.44C1017.84,1440.73,1022.45,1765.55,1019.45,1828.57Z"/><path class="cls-33" d="M865.77,1821.89c-12.26-117.05-5.43-265.48,8-337.93,4,1.56-4.67,38.7-7.2,100.84C861.37,1639.44,864.56,1731.14,865.77,1821.89Z"/><path class="cls-33" d="M992.77,1821.88c-10.77-182.53-39.21-351.3-36.46-353.94C960.15,1468.5,988.76,1640.08,992.77,1821.88Z"/><path class="cls-15" d="M918.44,1247.46c-1.76-15.38.65-37.56,2.79-46.7a13.42,13.42,0,0,1,8.63-9.9c10.15-3.53,22.17,5.12,19,16.57-.92-.58-3.87,32-1.84,41.1C973.87,1256.57,893.28,1283,918.44,1247.46Z"/><path class="cls-20" d="M949.18,1205.94c-.07.5-.16,1-.27,1.49-.67-.44-2.53,17.56-2.54,30.62-12.28,5.59-25.92,3.33-28.42,2.82-.48-18.13-1.24-45.56,11.91-50C939.44,1186.76,950.87,1195.5,949.18,1205.94Z"/><path class="cls-15" d="M1005.9,1486.78a89.12,89.12,0,0,1,0,11.13l14,5.13,7.44-3.13a29,29,0,0,1,1.82-12.41C1031.71,1480.83,1005.9,1486.78,1005.9,1486.78Z"/><path class="cls-19" d="M1011.71,1480.1c-4.37,3.73-10.92,6.64-18.94,8.83h0c-46,12.58-140.21,1.63-148-14.57-6.22-12.94-6.64-53.36,2.15-96.26,11.62-59.58,29.89-101.55,71.49-130.64-.21.85-5.51,22.9,28.64,1.06l10.5,1.87C961.11,1307.51,1038.1,1453.69,1011.71,1480.1Z"/><path class="cls-33" d="M902.62,1828a83.88,83.88,0,0,1-10.47,2.61s17-237.76,19.58-269.49S924.94,1524,924.94,1524,902.34,1822.86,902.62,1828Z"/><path class="cls-33" d="M903.29,1816.46c-.46,6.86-.71,11-.67,11.53-12.08,3.79-36.32,8.33-49.89-.82,0,0-.43-3.76-1.14-10.71C851.59,1816.46,875.37,1826.7,903.29,1816.46Z"/><path class="cls-33" d="M1019.45,1828.57s-33.91,7.71-51.38-.58c0,0-.72-4.13-2-11.53,0,0,23.88,6.27,53.77,0C1020,1823.67,1019.35,1828,1019.45,1828.57Z"/><path class="cls-31" d="M559.19,1829.27s32.41,12.07,46.39.63c0,0,.52-4.05,1.53-11.11,0,0-24.21,8.63-47.22-3.79h0Q559.61,1822.17,559.19,1829.27Z"/><path class="cls-31" d="M438.85,1831.17s25.14,9.32,42.61,1.7c0,0,1-5,2.74-13.84,0,0-15.66,8.19-43.06-2C440.39,1822.68,439.62,1827.44,438.85,1831.17Z"/><path class="cls-31" d="M559.88,1815q-.27,7.15-.69,14.26s3.6,1.34,8.93,2.7c-.12-85.3,0-223-34.75-281.1C533.37,1550.87,564.87,1681.2,559.88,1815Z"/><path class="cls-31" d="M533.37,1552.45c-4.12-.19,2.52-12.62,5-28.22a1.58,1.58,0,0,1,3.1.64C537.38,1541,536.39,1551.36,533.37,1552.45Z"/><path class="cls-15" d="M663.06,1396.2c13.49-7,27.61-5.45,48.66,2.11,7.33.89,12.24,14.61.47,16.83-17.19,3.25-39.3-1.25-39.3-1.25Z"/><path class="cls-20" d="M685,1399.28a33.76,33.76,0,0,1,24.27-8.87c5.58-.14,9.43,8.22,3.83,8.2-7-1.18-18.11.2-24.07,4.21C686.43,1405.45,682.39,1402,685,1399.28Z"/><path class="cls-20" d="M691.26,1415.27c-2.7,4.79-8.43,1.48-5.63-3.25S694.06,1410.53,691.26,1415.27Z"/><path class="cls-20" d="M697,1415.85c-2.7,4.79-8.43,1.48-5.63-3.25S699.76,1411.11,697,1415.85Z"/><path class="cls-20" d="M702.78,1416.43c-2.69,4.79-8.43,1.48-5.62-3.25S705.59,1411.69,702.78,1416.43Z"/><path class="cls-20" d="M708.7,1416.43c-2.69,4.79-8.43,1.48-5.62-3.25S711.51,1411.69,708.7,1416.43Z"/><path class="cls-34" d="M957.58,1250.4c.18,13-33.24,24.53-35.14,24.55l-4-11.86c-5.15,1.27-9.68,8.47-9.68,8.47-14.74-14.64-1.26-26.08,9.68-24.1h0c-.21.85-2.54,20.18,28.52.39C950.94,1246,957.58,1250.4,957.58,1250.4Z"/><rect class="cls-35" x="941.59" y="1546.76" width="159.9" height="116.57" transform="translate(-218.7 162.3) rotate(-8.21)"/><polygon class="cls-36" points="950.73 1674.14 941.6 1668.91 924.94 1553.55 934.07 1558.77 950.73 1674.14"/><polygon class="cls-36" points="924.94 1553.55 1083.26 1530.74 1092.35 1535.94 934.07 1558.77 924.94 1553.55"/><path class="cls-35" d="M1043.37,1536.49c-15.51-31.83-55.63-22.85-64.62,9.31-.15,2.62,1.6,5,3.88,4.64,2.72-.46,3-3.79,4.21-5.81,6.46-14.66,24.12-24.2,38.8-15.72a31.81,31.81,0,0,1,11.44,11C1039.5,1543.82,1044.07,1540.31,1043.37,1536.49Z"/><polygon class="cls-37" points="934.07 1558.77 1021.54 1605.04 1092.35 1535.94 934.07 1558.77"/><path class="cls-34" d="M1023.85,1614.9c-3.64,1-7.82-.67-8.36-4.71-.54-4.8-3.65-14,3.75-15,3.63-1.06,7.81.67,8.35,4.71C1028.14,1604.69,1031.24,1613.83,1023.85,1614.9Z"/><path class="cls-15" d="M1005.94,1497.91s-7.29,15.65-7.29,32.59l24.07,1.37c7.82-11.31,4.65-32,4.65-32Z"/><path class="cls-31" d="M1011.71,1480.1c-4.37,3.73-10.92,6.64-18.94,8.83,1.88-23-1.88-59.5-18.08-100.56s-15.46-83.27-15.46-83.27l11.95.89C992.16,1364.81,1030.93,1463.7,1011.71,1480.1Z"/><path class="cls-19" d="M957.58,1250.4c87.71,19.4,112.16,157.45,69.79,249.51,0,0-9.39,3.13-21.43-2,0,0-.41-65.8-27-118.86S957.58,1250.4,957.58,1250.4Z"/><path class="cls-22" d="M483.08,1861.46a6.57,6.57,0,0,1-6.41,5.1H445.74a6.57,6.57,0,0,1-6.4-5.1Z"/><path class="cls-22" d="M650.37,1861.46a5.27,5.27,0,0,1-5.27,5.1h-78a24,24,0,0,1-.26-5.1Z"/><path class="cls-29" d="M658.33,1421.8c-55.1,44.92-163.36,52.67-197.48-14.12-31.37-62-2.45-123.39,50.39-121.89,0,0,10.3,36.84,8.92,65.83l.16,11a35,35,0,0,0,21.31,31.84c31.94,13.37,87.29,9.4,111.15,4.69C664.08,1410.45,658.33,1421.8,658.33,1421.8Z"/><path class="cls-30" d="M660.41,1420.74c-2.82,3.26-8.21,5.75-8.21,5.75,2.56-18.79-7.13-26-7.13-26a17.4,17.4,0,0,1,8.85-1.29C663.06,1408,660.41,1420.74,660.41,1420.74Z"/><path class="cls-20" d="M711.17,1403.88c-7-.24-17.36-.06-14.07-1.89.13,0,12.68,1.22,20.79.41C721,1404.19,712.31,1403.79,711.17,1403.88Z"/><path class="cls-20" d="M708.65,1408.92c-.17,0-14.91,0-11.09-2a67.22,67.22,0,0,0,21.56,0C722.08,1408.34,715.35,1408.81,708.65,1408.92Z"/><path class="cls-15" d="M1005,1531.87c-2.56,4.87-8.38,1.73-5.72-3.08S1007.61,1527.06,1005,1531.87Z"/><path class="cls-15" d="M1010.67,1532.29c-2.56,4.87-8.39,1.73-5.72-3.09S1013.33,1527.48,1010.67,1532.29Z"/><path class="cls-15" d="M1016.51,1532.7c-2.56,4.87-8.39,1.73-5.72-3.09S1019.17,1527.89,1016.51,1532.7Z"/><path class="cls-15" d="M1022.42,1532.53c-2.56,4.87-8.38,1.73-5.72-3.09S1025.09,1527.72,1022.42,1532.53Z"/><path class="cls-29" d="M546.68,1289.72c-1.36,16.36-30.17,5.61-31.49,3.49-.43-1.13-4.75-9.08-4-10.2l28.69,1.71S542.49,1286.42,546.68,1289.72Z"/><path class="cls-28" d="M509.39,1168.22c35.2-5.48,69.55,38.31,49.59,77.76Z"/><path class="cls-15" d="M539.86,1284.72c1.77-15.38-.64-37.56-2.78-46.7-4.08-18-32.25-11.16-27.68,6.66.92-.58,1.77,38.33,1.77,38.33C515.76,1290.3,539.87,1296.47,539.86,1284.72Z"/><path class="cls-20" d="M511,1275.75c12.27,5.58,26.88,2.64,29.38,2.12,4-60.8-26.38-68.9-29.54-8Z"/><path class="cls-15" d="M489.84,1231.17c2.06,12.79,6.38,27.21,16.48,35.67h0a32,32,0,0,0,14.32,6.59c29.85,8.34,64.86-26.36,41.53-51.63-8.47-7.83-10.27-21.71-17-29.5-9.82-14.26-31.39-13.52-43-1.89C491.61,1200.93,488,1215.41,489.84,1231.17Z"/><path class="cls-26" d="M538.66,1223.28c1.17-2.22-2.35-4-3.46-1.76S537.55,1225.53,538.66,1223.28Z"/><path class="cls-26" d="M554.93,1220.54c1.18-2.22-2.34-4-3.45-1.75S553.83,1222.8,554.93,1220.54Z"/><path class="cls-26" d="M548.78,1237.38c-.92-.09-2.83.08-2.63-1.23a.75.75,0,0,1,.93-.47c2.46.87,8.44-.84,5.57-2.59-4.15-2.25-6.94-10.11-7-10.45a.73.73,0,0,1,1.38-.48c0,.08,2.72,7.66,6.37,9.64C557.84,1235,552.32,1237.34,548.78,1237.38Z"/><path class="cls-20" d="M489.84,1231.17c2.06,12.79,6.38,27.21,16.48,35.67h0c-5.6-6.95-9.09-22.51-9.09-22.51l2.64-6.92c44.42-14.33,40.7-50.07,40.7-50.07-6.62-5.79-15.66-6.89-24.17-4.78C495.57,1188,487.21,1210.47,489.84,1231.17Z"/><path class="cls-28" d="M535.86,1183.85c-2.24-1.46-24.33-14.58-26.47-15.63,0,0-17.67,11.88-16.09,14.5-11.52,9.78-15.53,28.41-8,43.25l14.26,7.88C539.35,1219.41,535.86,1183.85,535.86,1183.85Z"/><path class="cls-29" d="M545.09,1306.5c.06,4-6.18,4-6.12,0S545.15,1302.53,545.09,1306.5Z"/><path class="cls-29" d="M551.21,1319.65c0,4-6.18,4-6.12,0S551.26,1315.69,551.21,1319.65Z"/><path class="cls-29" d="M557.32,1333.88c.06,4-6.17,4-6.11,0S557.38,1329.91,557.32,1333.88Z"/><path class="cls-20" d="M1004.44,1533.25c-1.44-.14.37-7.36,1.48-12.52a.6.6,0,0,1,1.16.33C1005.3,1526.41,1005.72,1532.93,1004.44,1533.25Z"/><path class="cls-20" d="M1010.2,1533.25c-1.47-.14.59-6.9,1.74-12a.59.59,0,1,1,1.14.34C1011.3,1526.75,1011.45,1532.88,1010.2,1533.25Z"/><path class="cls-20" d="M1016.51,1533.3c-1.6-.34,1.31-6.09,1.1-11.9a.59.59,0,0,1,.61-.58.6.6,0,0,1,.59.61,58.4,58.4,0,0,1-1.72,11.42A.62.62,0,0,1,1016.51,1533.3Z"/><path class="cls-28" d="M534.45,1172.35s-25.78-22.44-53-3.22c-30,21.22-16.27,57.52-29.92,73.61-19.53,23-17.17,47.8,1.28,55.9,13.88,6.09,38,8.73,58.16,4.89,6.44-1.23,13-5.25,5.54-15-7.77-10.12-19.36-27.09-21.5-42.59l4.57-12.13Z"/><path class="cls-15" d="M481.71,1237.63c3.32,14.58,20.76,10.89,17.89-3.78C496.29,1219.27,478.84,1223,481.71,1237.63Z"/><path class="cls-26" d="M486.33,1240.63a.72.72,0,0,1-.7-.51c-3.31-9.27,1.71-13.13,7.81-10.63a.73.73,0,0,1-.54,1.36c-5.37-2.09-8.57,1-5.87,8.84A.73.73,0,0,1,486.33,1240.63Z"/><path class="cls-26" d="M493.17,1239.61c-1.33-.18-2.06-5.54-7.72-6.12a.72.72,0,0,1-.68-.78.74.74,0,0,1,.78-.68C491.11,1232.41,495.44,1239.42,493.17,1239.61Z"/><path class="cls-34" d="M489.72,1244.34a1.65,1.65,0,0,0,3.29,0A1.65,1.65,0,0,0,489.72,1244.34Z"/><path class="cls-38" d="M903.4,1171.16s-5.6-23.11,14.44-32l13.56,8.92Z"/><path class="cls-15" d="M969.83,1190.75c-1.29,13.19-4.78,28.19-14.56,37.47h0c-.4.37-.8.72-1.22,1.07l0,0c-14.48,11.11-35.59,11.12-51.26-.22h0c-12.49-10.29-17.15-24.9-11.65-36.73,3.65-7,10.76-13.39,12.3-21.21C912.73,1123.74,974.9,1139.72,969.83,1190.75Z"/><path class="cls-26" d="M919.49,1185.8c-1.33-2.19,2.15-4.24,3.42-2S920.77,1188,919.49,1185.8Z"/><path class="cls-26" d="M902.7,1184c-1.33-2.19,2.14-4.24,3.41-2S904,1186.28,902.7,1184Z"/><path class="cls-20" d="M969.83,1190.75c-1.29,13.19-4.78,28.19-14.56,37.47h0c-.4.37-.8.72-1.22,1.07,12.5-19.6,10.17-24.15,7-39-14.08-12.42-12-27.14-26.24-28.58a186,186,0,0,1-26.16-4.64C928.22,1124.7,974.39,1149.44,969.83,1190.75Z"/><path class="cls-26" d="M908.41,1200.81c-3.23-.43-7.24-2.36-3.38-5.37,3.61-2.26,5.87-10.17,5.9-10.25,3.64-2.74-1,9-5.1,11.52-2.82,2,3.39,3.33,5.86,2.29C915,1199.89,909.81,1201.38,908.41,1200.81Z"/><path class="cls-38" d="M974,1173.21c-.52-38.19-24-39.5-24-39.5h0c-17.26-28.84-63.42-20.15-47.95,11.86,8.63,19.62,37.83,1.83,51.3,27.22,5.41,10.2,8.76,16.49,19.38,22.55C972.75,1195.34,975.45,1183.68,974,1173.21Z"/><path class="cls-15" d="M978.54,1196.83c-2,15-20.87,12.19-18.51-2.72C962.06,1179.16,980.91,1181.93,978.54,1196.83Z"/><path class="cls-26" d="M973.9,1200.19a.76.76,0,0,1-.66-.92c1.07-4.48.84-7.51-.68-8.75-3-2.19-5.83,1.17-6.87-.26-.36-1.58,4.58-3,7.82-.91C975.17,1190.32,976.84,1196.91,973.9,1200.19Z"/><path class="cls-26" d="M907.76,1211.56c-2.7,0-5-1.64-2.46-2,.29.11,7.38,2.74,15.76-3.54a.75.75,0,0,1,1.05.16C919.26,1211.58,910,1211.75,907.76,1211.56Z"/><path class="cls-26" d="M928.83,1181.62a.72.72,0,0,1-.59-.3,13.56,13.56,0,0,0-9.43-5.07.75.75,0,0,1-.71-.78.77.77,0,0,1,.77-.71,14.93,14.93,0,0,1,10.56,5.68.73.73,0,0,1-.6,1.18Z"/><path class="cls-26" d="M903.13,1176.76a.75.75,0,0,1-.63-.35.74.74,0,0,1,.23-1,12.16,12.16,0,0,1,9-1.37.74.74,0,0,1-.4,1.43,10.81,10.81,0,0,0-7.82,1.19A.75.75,0,0,1,903.13,1176.76Z"/><path class="cls-26" d="M966.13,1199.28l-.23,0a.75.75,0,0,1-.48-.94,10.27,10.27,0,0,1,8.93-6.74.76.76,0,0,1,.81.68.74.74,0,0,1-.68.8,8.88,8.88,0,0,0-7.64,5.72A.75.75,0,0,1,966.13,1199.28Z"/><path class="cls-26" d="M529.59,1221.15a.69.69,0,0,1-.36-.11.66.66,0,0,1-.2-.92c.17-.26,4.16-6.3,11.42-6.6a.67.67,0,0,1,.69.64.66.66,0,0,1-.64.69c-6.55.28-10.31,5.94-10.35,6A.67.67,0,0,1,529.59,1221.15Z"/><path class="cls-26" d="M555,1213.74a.71.71,0,0,1-.31-.08c-4.34-2.33-8.82,0-8.86,0a.67.67,0,0,1-.63-1.18,11.41,11.41,0,0,1,10.12,0,.67.67,0,0,1-.32,1.26Z"/><path class="cls-26" d="M543.91,1251a5.81,5.81,0,0,1-4.51-2.4c-1.83-2.41-1.66-5.64.38-7.19s5.19-.83,7,1.58h0c1.83,2.42,1.67,5.64-.37,7.19A4.17,4.17,0,0,1,543.91,1251Zm-1.61-8.91a2.63,2.63,0,0,0-1.61.52c-1.39,1.05-1.42,3.33-.09,5.09s3.54,2.33,4.92,1.28,1.42-3.33.09-5.08A4.29,4.29,0,0,0,542.3,1242.06Z"/></g></svg>