<svg width="5" height="25" viewBox="0 0 5 25" fill="none" xmlns="http://www.w3.org/2000/svg">
<path d="M4 0.727272L3.77273 17.4545H1.13636L0.909091 0.727272H4ZM2.45455 24.1818C1.89394 24.1818 1.41288 23.9811 1.01136 23.5795C0.609849 23.178 0.409091 22.697 0.409091 22.1364C0.409091 21.5758 0.609849 21.0947 1.01136 20.6932C1.41288 20.2917 1.89394 20.0909 2.45455 20.0909C3.01515 20.0909 3.49621 20.2917 3.89773 20.6932C4.29924 21.0947 4.5 21.5758 4.5 22.1364C4.5 22.5076 4.4053 22.8485 4.21591 23.1591C4.03409 23.4697 3.78788 23.7197 3.47727 23.9091C3.17424 24.0909 2.83333 24.1818 2.45455 24.1818Z" fill="#FF0000" fill-opacity="0.66"/>
</svg>
