<svg width="189" height="190" viewBox="0 0 189 190" fill="none" xmlns="http://www.w3.org/2000/svg">
<path d="M157.43 134.85C155.106 138.516 152.484 141.985 149.59 145.22C147.579 147.479 145.435 149.616 143.17 151.62L142.65 152.08L141.58 152.99L140.77 153.66L139.99 154.29C138.59 155.4 137.17 156.46 135.72 157.45L135.01 157.92C134.53 158.247 134.05 158.58 133.57 158.92L132.06 159.86L131.28 160.32C130.88 160.56 130.46 160.81 130.05 161.04L128.82 161.73C128.52 161.89 128.21 162.06 127.88 162.22H127.78C126.88 162.69 125.98 163.14 125.06 163.57C124.46 163.87 123.84 164.15 123.23 164.41L122.7 164.65L122.49 164.74L122.26 164.84L121.71 165.07L120.13 165.71L119.89 165.81L119.22 166.05H119.11L118.98 166.1L118.36 166.34L117.94 166.49L117.65 166.6L117.4 166.68C116.96 166.84 116.51 166.99 116.05 167.14C115.42 167.35 114.8 167.55 114.17 167.74L113.94 167.82C113.8 167.82 113.66 167.89 113.52 167.94H113.37L112.48 168.19L112.28 168.24L111.83 168.37L111.39 168.48L110.39 168.74L110.09 168.82L109.86 168.87L108.49 169.2L107.94 169.31C107.53 169.41 107.11 169.49 106.7 169.57H106.48C105.85 169.7 105.21 169.81 104.58 169.91C103.44 170.11 102.3 170.27 101.15 170.41L100.4 170.51L99.08 170.64L98.26 170.72C97.78 170.72 97.32 170.79 96.84 170.82C96.36 170.85 95.9 170.89 95.43 170.9C94.68 170.9 93.94 170.97 93.19 170.98C93.0401 170.99 92.8898 170.99 92.74 170.98H90.45C89.78 170.98 89.1 170.98 88.45 170.92C87.27 170.92 86.09 170.8 84.91 170.71L84.26 170.64L83.36 170.55C81.85 170.41 80.36 170.2 78.85 169.96L77.11 169.65L76.55 169.54L76.05 169.45H75.87L75.02 169.27L74.78 169.22L73.78 168.99C72.58 168.71 71.37 168.4 70.17 168.06L69.82 167.96L69.56 167.88C68.18 167.48 66.81 167.04 65.44 166.55L64.84 166.33L63.99 166.01C63.63 165.883 63.27 165.743 62.91 165.59L62.21 165.31L61.72 165.11L61.42 164.99L61.24 164.91L61 165L60.81 164.92C60.56 164.82 60.32 164.71 60.07 164.59L59.78 164.46C59.54 164.35 59.3 164.25 59.07 164.13L58.43 163.84L57.93 163.62L56.93 163.11L56.09 162.68L55.93 162.6C55.6 162.44 55.28 162.26 54.93 162.1C54.8958 162.087 54.865 162.067 54.84 162.04L54.7 161.97L53.7 161.43L53.23 161.16L53.11 161.1L52.51 160.75L52.37 160.67L51.76 160.32C51.57 160.2 51.38 160.1 51.19 159.97L51 159.86L50.72 159.69L50.19 159.36L49.84 159.15L49.49 158.92L48.78 158.46L48.64 158.37L48.53 158.3L48.42 158.22L48.35 158.17C48.1423 158.045 47.942 157.908 47.75 157.76C47.49 157.61 47.26 157.44 47.02 157.27C46.9878 157.254 46.9576 157.233 46.93 157.21L46.62 156.99L46.32 156.79L45.85 156.45C45.85 156.45 45.85 156.45 45.8 156.45C45.2 156.02 44.6 155.58 44.03 155.12L42.89 154.25L41.48 153C41.4145 152.938 41.3443 152.881 41.27 152.83C40.65 152.31 40.04 151.78 39.44 151.23C38.84 150.68 38.5 150.38 38.04 149.94C37.9 149.82 37.77 149.69 37.64 149.56C37.28 149.23 36.93 148.89 36.58 148.56L36 148C35.58 147.57 35.16 147.13 34.75 146.69L34.56 146.5C34.56 146.5 34.56 146.5 34.56 146.45C34.31 146.19 34.06 145.92 33.82 145.65C33.36 145.143 32.91 144.633 32.47 144.12C32.32 143.96 32.19 143.79 32.05 143.63C30.88 142.24 29.75 140.81 28.68 139.35C28.08 138.53 27.49 137.7 26.92 136.85L26.63 136.42L26.15 135.69C26.15 135.69 26.15 135.69 26.15 135.62C25.29 134.29 24.46 132.92 23.68 131.54C23.59 131.38 23.5 131.21 23.42 131.04C22.87 130.04 22.36 129.1 21.87 128.11C21.55 127.45 21.23 126.81 20.92 126.11C19.86 123.81 18.92 121.47 18.07 119.11C17.68 118.01 17.31 116.9 16.98 115.78C16.9487 115.691 16.922 115.601 16.9 115.51C16.84 115.28 16.77 115.06 16.69 114.82C16.51 114.19 16.34 113.55 16.17 112.93C12.9044 100.411 12.8042 87.2758 15.8786 74.7083C18.953 62.1407 25.1052 50.5353 33.7813 40.9373C42.4574 31.3393 53.3847 24.0503 65.5791 19.7267C77.7734 15.4031 90.8517 14.1808 103.636 16.1699C116.42 18.159 128.509 23.297 138.813 31.121C149.118 38.9451 157.314 49.2095 162.664 60.9897C168.014 72.77 170.349 85.696 169.46 98.6035C168.571 111.511 164.485 123.995 157.57 134.93L157.43 134.85Z" fill="#F7F2DA"/>
<path d="M62.9203 143.77L52.4803 160.51L52.4003 160.66L51.7903 160.31C51.6003 160.19 51.4103 160.09 51.2203 159.96L51.0303 159.85L50.7503 159.68L50.2203 159.35L49.8703 159.14L49.5203 158.91L48.8103 158.45L48.6703 158.36L48.5603 158.29L48.4503 158.21L48.3803 158.16C48.1726 158.035 47.9723 157.898 47.7803 157.75C47.5203 157.6 47.2903 157.43 47.0503 157.26C47.0181 157.244 46.9879 157.223 46.9603 157.2L46.6503 156.98L46.3503 156.78L45.8803 156.44C45.8803 156.44 45.8803 156.44 45.8303 156.44C45.2303 156.01 44.6303 155.57 44.0603 155.11L42.9203 154.24L41.4803 153C41.4149 152.938 41.3446 152.881 41.2703 152.83C40.6503 152.31 40.0403 151.78 39.4403 151.23C38.8403 150.68 38.5003 150.38 38.0403 149.94C37.9003 149.82 37.7703 149.69 37.6403 149.56C37.2803 149.23 36.9303 148.89 36.5803 148.56L36.0003 148C35.5803 147.57 35.1603 147.13 34.7503 146.69L34.5603 146.5C34.5603 146.5 34.5603 146.5 34.5603 146.45C34.3103 146.19 34.0603 145.92 33.8203 145.65C34.1603 145.44 34.5103 145.23 34.8203 145.04C35.1303 144.85 35.7503 144.53 36.2203 144.3C36.6903 144.07 37.2203 143.8 37.7603 143.57C39.9624 142.596 42.2668 141.871 44.6303 141.41C44.7167 141.42 44.8039 141.42 44.8903 141.41C47.841 140.875 50.8569 140.801 53.8303 141.19L54.2603 141.25H54.3503L54.7203 141.3C55.1603 141.37 55.6003 141.46 56.0403 141.55L56.4403 141.63L56.8303 141.73C58.9242 142.202 60.9647 142.885 62.9203 143.77Z" fill="#FBA479"/>
<path d="M143.17 151.62L142.65 152.08L141.58 152.99L140.77 153.66L139.99 154.29C138.59 155.4 137.17 156.46 135.72 157.45L135.01 157.92C134.53 158.247 134.05 158.58 133.57 158.92L132.06 159.86L131.28 160.32C130.88 160.56 130.46 160.81 130.05 161.04L128.82 161.73C128.52 161.89 128.21 162.06 127.88 162.22H127.78C126.88 162.69 125.98 163.14 125.06 163.57C124.46 163.87 123.84 164.15 123.23 164.41L122.7 164.65L122.49 164.74L122.26 164.84L121.71 165.07L120.13 165.71L119.89 165.81L119.22 166.05H119.11L118.98 166.1L118.36 166.34L117.94 166.49L117.65 166.6L117.4 166.68C116.96 166.84 116.51 166.99 116.05 167.14C115.42 167.35 114.8 167.55 114.17 167.74L113.94 167.82C113.8 167.82 113.66 167.89 113.52 167.94H113.37L112.48 168.19L112.28 168.24L111.83 168.37L111.39 168.48L110.39 168.74L110.09 168.82L109.86 168.87L108.49 169.2L107.94 169.31C107.53 169.41 107.11 169.49 106.7 169.57H106.48C105.85 169.7 105.21 169.81 104.58 169.91C103.44 170.11 102.3 170.27 101.15 170.41L100.4 170.51L99.0797 170.64L98.2597 170.72C97.7797 170.72 97.3196 170.79 96.8396 170.82C96.3596 170.85 95.8997 170.89 95.4296 170.9C94.6796 170.9 93.9397 170.97 93.1897 170.98C93.0398 170.99 92.8895 170.99 92.7396 170.98H90.4496C89.7796 170.98 89.0996 170.98 88.4496 170.92C87.2696 170.92 86.0897 170.8 84.9097 170.71L84.2597 170.64L83.3596 170.55C81.8497 170.41 80.3596 170.2 78.8496 169.96L77.1096 169.65L76.5497 169.54L76.0497 169.45H75.8697L75.0196 169.27L74.7796 169.22L73.7796 168.99C72.5796 168.71 71.3696 168.4 70.1696 168.06L69.8196 167.96L69.5596 167.88C68.1796 167.48 66.8097 167.04 65.4397 166.55L64.8396 166.33L63.9897 166.01C63.6297 165.883 63.2696 165.743 62.9096 165.59L62.2096 165.31L61.7197 165.11L61.4196 164.99L61.2397 164.91L60.9996 165L60.8097 164.92C60.5597 164.82 60.3196 164.71 60.0696 164.59L59.7796 164.46C59.5396 164.35 59.2996 164.25 59.0696 164.13L58.4296 163.84L57.9296 163.62L56.9296 163.11L56.0896 162.68L55.9296 162.6C55.5996 162.44 55.2796 162.26 54.9296 162.1C54.8955 162.087 54.8647 162.067 54.8396 162.04L54.6996 161.97L53.6996 161.43L53.2296 161.16L53.1096 161.1L52.5096 160.75L52.3696 160.67L51.7596 160.32C51.5696 160.2 51.3796 160.1 51.1896 159.97L50.9996 159.86L50.7197 159.69L50.1896 159.36L49.8396 159.15L49.4897 158.92L48.7796 158.46L48.6396 158.37L48.5296 158.3L48.4196 158.22L48.3496 158.17C48.142 158.045 47.9416 157.908 47.7496 157.76C47.4896 157.61 47.2596 157.44 47.0196 157.27C46.9874 157.254 46.9572 157.233 46.9296 157.21L46.6196 156.99L46.3196 156.79L45.8496 156.45C45.8496 156.45 45.8496 156.45 45.7996 156.45C45.1996 156.02 44.5996 155.58 44.0296 155.12L42.8896 154.25L41.4796 153C41.4142 152.938 41.344 152.881 41.2696 152.83C40.6496 152.31 40.0396 151.78 39.4396 151.23C38.8396 150.68 38.4997 150.38 38.0396 149.94C37.8996 149.82 37.7696 149.69 37.6396 149.56C39.5296 146.486 41.865 143.709 44.5696 141.32L44.6896 141.22C45.6896 140.28 46.8196 139.37 47.9396 138.51L48.2197 138.28L48.5096 138.06C49.3696 137.42 50.2296 136.79 51.1096 136.18C52.2296 135.4 53.3796 134.65 54.5196 133.94C60.1196 130.42 65.7497 127.66 69.6897 125.58L71.6096 124.58C72.0196 124.34 72.4096 124.12 72.7496 123.91L73.2696 123.59C73.4396 123.49 73.5996 123.38 73.7396 123.28H73.8196C74.6096 123.38 75.4596 123.52 76.3396 123.69L76.7796 124.16L77.2197 124.63L79.6897 127.2L81.7696 129.38L82.0196 129.64L82.2796 129.92L89.0497 137L89.1197 136.87L94.7997 126L97.3096 121.21C98.0332 121.874 98.8884 122.378 99.8196 122.69C101.61 123.43 104.19 124.27 107.21 125.29C111.41 126.7 116.45 128.43 121.44 130.64H121.51C125.181 132.25 128.693 134.202 132 136.47L132.18 136.6H132.23C137.76 140.52 142 145.4 143.17 151.62Z" fill="#FBA479"/>
<path d="M132.29 136.59C131.526 137.681 130.857 138.835 130.29 140.04C126.84 147.27 125.6 157.15 125 163.56C124.4 163.86 123.78 164.14 123.17 164.4L122.64 164.64L122.43 164.73L122.2 164.83L121.65 165.06L120.07 165.7L119.83 165.8L119.16 166.04H119.05L118.92 166.09L118.3 166.33L117.88 166.48L117.59 166.59L117.34 166.67C116.9 166.83 116.45 166.98 115.99 167.13C115.36 167.34 114.74 167.54 114.11 167.73L113.88 167.81C113.74 167.81 113.6 167.88 113.46 167.93H113.31L112.42 168.18L112.22 168.23L111.77 168.36L111.33 168.47L110.33 168.73L110.03 168.81L109.8 168.86L108.43 169.19L107.88 169.3C107.47 169.4 107.05 169.48 106.64 169.56H106.42C105.79 169.69 105.15 169.8 104.52 169.9C103.38 170.1 102.24 170.26 101.09 170.4L100.34 170.5L99.0198 170.63L98.1998 170.71C97.7198 170.71 97.2598 170.78 96.7798 170.81C96.2998 170.84 95.8398 170.88 95.3698 170.89C94.6198 170.89 93.8798 170.96 93.1298 170.97C92.98 170.98 92.8296 170.98 92.6798 170.97H90.4498C89.7798 170.97 89.0998 170.97 88.4498 170.91C87.2698 170.91 86.0898 170.79 84.9098 170.7L84.2598 170.63L83.3598 170.54C81.8498 170.4 80.3598 170.19 78.8498 169.95L77.1098 169.64L76.5498 169.53L76.0498 169.44H75.8698L75.0198 169.26L74.7798 169.21L73.7798 168.98C72.5798 168.7 71.3698 168.39 70.1698 168.05L69.8198 167.95L69.5598 167.87C68.1798 167.47 66.8098 167.03 65.4398 166.54L64.8398 166.32L63.9898 166C63.6298 165.873 63.2698 165.733 62.9098 165.58L62.2098 165.3L61.7198 165.1L61.4198 164.98L61.2398 164.9L60.9998 165L60.8098 164.92C60.5598 164.82 60.3198 164.71 60.0698 164.59L59.7798 164.46C59.5398 164.35 59.2998 164.25 59.0698 164.13L58.4298 163.84L57.9298 163.62L56.9298 163.11L56.0898 162.68L55.9298 162.6C55.5998 162.44 55.2798 162.26 54.9298 162.1C54.8956 162.087 54.8648 162.067 54.8398 162.04L54.6998 161.97L53.6998 161.43L53.2298 161.16L53.1098 161.1L52.5098 160.75C52.4957 160.672 52.4757 160.595 52.4498 160.52C52.4498 160.31 52.3598 160.1 52.3098 159.89C50.8098 153.53 48.4898 146.24 44.7998 141.31V141.25C47.8558 138.556 51.1379 136.131 54.6098 134C61.2398 143 74.0998 148.8 88.6098 148.17C103.32 147.52 115.77 140.46 121.49 130.73C125.2 132.34 128.752 134.292 132.1 136.56L132.29 136.59Z" fill="white"/>
<path d="M91.4096 156C91.1796 158.59 91.1796 164.7 90.8496 171.17H92.5896C92.7394 171.18 92.8898 171.18 93.0396 171.17C92.1096 164.89 91.5396 158.84 91.4096 156Z" fill="#E1DFEA"/>
<path d="M135 157.93C134.52 158.257 134.04 158.59 133.56 158.93L132.05 159.87L131.27 160.33L130.27 140.13L130.08 136.3C130.747 136.353 131.387 136.423 132 136.51H132.12C138.761 137.355 144.916 140.438 149.57 145.25C147.559 147.509 145.416 149.646 143.15 151.65L142.63 152.11L141.56 153.02L140.75 153.69L139.97 154.32C138.57 155.43 137.15 156.49 135.7 157.48L135 157.93Z" fill="#FBA479"/>
<path d="M65.9997 96.35C69.2997 84.78 74.6297 72.35 77.7997 61.25C77.7997 61.25 89.4897 56.67 91.2297 56.49C92.3203 56.38 93.4192 56.38 94.5097 56.49C95.576 56.7475 96.6143 57.1092 97.6097 57.57C99.1997 58.3 108.77 66.44 108.77 66.44C108.15 78 108.77 90.62 108.1 102.63C107.84 107.53 106.38 113.21 102.1 116C95.9197 120 95.8997 126.73 87.4297 125.31C74.9697 123.23 71.6397 112.24 68.8697 107.31C66.3997 102.78 64.6797 101.07 65.9997 96.35Z" fill="#FBA479"/>
<path d="M88.1204 78.39C87.6004 78.08 86.6204 77.53 86.6204 77.53L84.9604 78.53C84.9604 78.53 85.2304 76.97 84.9604 76.83C77.3604 73.31 74.3604 77.05 74.3604 77.05C76.6541 77.3175 78.8934 77.9346 81.0004 78.88C83.9004 80.22 85.4403 81.6 86.5203 83.58C87.2587 81.92 87.7959 80.1776 88.1204 78.39Z" fill="#261411"/>
<path d="M94.6202 79.3C95.2002 79.13 96.3002 78.88 96.3002 78.88L97.6302 80.27C97.6302 80.27 97.8002 78.69 98.1102 78.65C106.38 77.33 108.24 81.74 108.24 81.74C105.964 81.3899 103.647 81.3899 101.37 81.74C98.2102 82.23 96.3702 83.14 94.7702 84.74C94.5029 82.9392 94.4525 81.1128 94.6202 79.3Z" fill="#261411"/>
<path d="M74.8901 84.93C74.8901 85.02 74.9501 85.11 74.9801 85.2C76.2201 88.07 83.2301 89.46 85.5401 88.2C85.3901 85.01 84.3301 82.09 80.8701 82.32C77.7401 82.53 76.1401 82.52 74.8701 84.87L74.8901 84.93Z" fill="white"/>
<path d="M82.5097 86.09C82.4033 86.7605 82.1121 87.388 81.6687 87.9021C81.2253 88.4161 80.6473 88.7963 79.9997 89C79.706 89.0601 79.4033 89.0601 79.1097 89C77.6497 88.67 76.7997 86.83 77.2197 84.89C77.6397 82.95 79.1597 81.63 80.6197 81.95C82.0797 82.27 82.7697 83.79 82.6197 85.53C82.5996 85.7195 82.5628 85.9069 82.5097 86.09Z" fill="#60312B"/>
<path d="M82.5099 86.09C82.4035 86.7605 82.1123 87.388 81.6689 87.9021C81.2255 88.4161 80.6475 88.7964 79.9999 89C79.8141 88.7055 79.6885 88.3772 79.6301 88.034C79.5718 87.6907 79.5819 87.3393 79.6599 87C79.9299 85.75 80.9099 84.91 81.8499 85.12C82.1372 85.184 82.3965 85.3382 82.5899 85.56C82.578 85.7386 82.5512 85.9158 82.5099 86.09Z" fill="#261411"/>
<path d="M83.5896 85.84L81.1396 86.22C81.9956 86.8301 82.9398 87.3056 83.9397 87.63C83.8723 87.0247 83.7552 86.426 83.5896 85.84Z" fill="white"/>
<path d="M75.0002 85.21C75.4902 86.61 78.1202 92.6 85.5902 88.49C86.3302 86.32 85.8902 80.02 79.9902 79.49C75.7602 79.09 75.0502 84.49 74.9902 84.85V84.93C76.2402 82.58 79.1602 82.5 80.9102 82.81C84.4002 83.43 85.0002 85.14 85.6402 88.26C83.2402 89.47 76.2302 88.08 75.0002 85.21Z" fill="#EF7950"/>
<path d="M105.84 89.44L105.69 89.66C103.81 91.97 97.0402 91.42 95.2402 89.66C96.2402 86.78 97.9402 84.38 101.04 85.49C103.85 86.49 105.32 86.9 105.85 89.37L105.84 89.44Z" fill="white"/>
<path d="M100.42 91.76C100.221 91.8102 100.015 91.8304 99.81 91.82C98.39 91.73 97.33 90.14 97.46 88.25C97.59 86.36 98.84 84.9 100.26 84.98C101.68 85.06 102.66 86.56 102.61 88.38C102.615 88.4366 102.615 88.4934 102.61 88.55C102.615 89.2444 102.408 89.9238 102.017 90.4975C101.626 91.0711 101.068 91.5116 100.42 91.76Z" fill="#60312B"/>
<path d="M100.42 91.76C100.169 91.5085 99.9767 91.2034 99.859 90.8676C99.7413 90.5317 99.7007 90.1737 99.7403 89.82C99.8203 88.61 100.62 87.67 101.53 87.73C101.748 87.7486 101.959 87.8169 102.146 87.9296C102.333 88.0423 102.492 88.1964 102.61 88.38C102.615 88.4366 102.615 88.4935 102.61 88.55C102.616 89.2444 102.409 89.9238 102.017 90.4975C101.626 91.0711 101.069 91.5116 100.42 91.76Z" fill="#261411"/>
<path d="M103.68 88.41L101.45 88.76C102.104 89.208 102.797 89.5962 103.52 89.92C103.58 89.42 103.63 88.92 103.68 88.41Z" fill="white"/>
<path d="M105.68 89.67C104.86 90.82 100.91 95.67 95.1399 89.93C95.0299 87.75 97.0699 82.1 102.61 83.13C106.61 83.86 105.81 89.03 105.83 89.35C105.835 89.373 105.835 89.397 105.83 89.42C105.601 88.4448 105.055 87.5734 104.276 86.9433C103.498 86.3132 102.531 85.9602 101.53 85.94C98.1899 85.6 96.6199 87.02 95.2199 89.71C96.9999 91.43 103.8 92 105.68 89.67Z" fill="#EF7950"/>
<path d="M94.2297 97.12C94.4129 97.1051 94.5972 97.1271 94.7717 97.1849C94.9462 97.2426 95.1073 97.3349 95.2454 97.4562C95.3835 97.5775 95.4958 97.7253 95.5755 97.8909C95.6553 98.0565 95.7009 98.2364 95.7097 98.42C95.7097 99.9 93.2797 100.14 92.1297 100.42C90.9731 100.691 89.7693 100.69 88.6134 100.415C87.4576 100.141 86.3813 99.6018 85.4697 98.84C86.9622 99.2626 88.5334 99.3271 90.0555 99.0282C91.5777 98.7294 93.0078 98.0756 94.2297 97.12Z" fill="#EF7950"/>
<path d="M96.9995 83.59C96.9995 83.59 93.3995 92.5 93.9995 98.67C92.3295 96.18 92.0795 88.31 96.9995 83.59Z" fill="#EF7950"/>
<path d="M75.6303 58.08C76.3003 57.23 90.7803 45.76 116.63 52.08C119.53 52.79 112.07 62.95 112.07 62.95C108.7 68.05 96.2604 68.67 95.3904 68.43C94.6903 68.24 83.9204 60.15 83.2504 59.81C76.3104 68.72 69.6204 87.45 68.8604 88C69.3804 85.17 68.7603 66.86 75.6303 58.08Z" fill="#261411"/>
<path d="M107.75 88.55C109.08 86.66 113.23 86.55 114.75 88.33C116.39 90.27 112.5 99.57 110.37 99.41C105.39 99.06 107.75 88.55 107.75 88.55Z" fill="#FBA479"/>
<path d="M107.89 93.62C107.835 92.871 107.835 92.119 107.89 91.37C107.956 90.9791 108.043 90.5919 108.15 90.21C108.189 90.0051 108.256 89.8066 108.35 89.62C109.09 88.36 110.61 88.43 111.68 88.4C112.22 88.3393 112.767 88.4149 113.27 88.62C113.57 88.82 113.69 89.31 113.84 89.62C113.04 88.69 111.1 89.02 110.12 89.56C109.633 89.9735 109.271 90.5141 109.073 91.1214C108.875 91.7288 108.85 92.3791 109 93C109.225 93.0181 109.445 93.0823 109.645 93.1888C109.844 93.2953 110.02 93.4418 110.161 93.619C110.301 93.7963 110.404 94.0006 110.462 94.2192C110.521 94.4379 110.533 94.6662 110.5 94.89C110.34 95.73 108.63 96.1 108.42 95.25C109.85 95.05 108.73 93.8 107.89 93.62Z" fill="#EF7950"/>
<path d="M71.8599 82.49C70.9999 80.14 66.5999 79 64.5699 80.4C62.3199 82.01 63.9399 92.88 66.2299 93.28C71.5499 94.23 71.8599 82.49 71.8599 82.49Z" fill="#FBA479"/>
<path d="M70.3699 87.81C70.6154 87.0317 70.8026 86.2361 70.9299 85.43C70.9597 84.9972 70.9597 84.5628 70.9299 84.13C70.957 83.9075 70.957 83.6825 70.9299 83.46C70.4899 81.92 68.8599 81.59 67.7299 81.27C67.1773 81.0665 66.5834 81.0013 65.9999 81.08C65.6299 81.21 65.3799 81.7 65.1299 81.97C66.2299 81.19 68.1999 82.06 69.1299 82.9C70.0599 83.74 70.0599 85.77 69.4699 86.9C69.2272 86.859 68.9787 86.8683 68.7397 86.9272C68.5008 86.9861 68.2764 87.0933 68.0805 87.2423C67.8846 87.3914 67.7214 87.579 67.6009 87.7936C67.4804 88.0082 67.4052 88.2452 67.3799 88.49C67.3799 89.43 69.0399 90.27 69.4899 89.43C67.9099 88.8 69.4299 87.78 70.3699 87.81Z" fill="#EF7950"/>
<path d="M108.77 65.15C109.5 64.95 111.88 60.69 112.24 61.59C112.6 62.49 109.53 84.45 108.57 89.22C107.99 82.11 105.69 72.98 105.27 65.94L108.77 65.15Z" fill="#261411"/>
<path d="M111.36 120.52C110.2 123.2 100.03 132.31 91.9704 136.52C91.0804 136.98 90.2204 137.37 89.4004 137.7L88.5004 138.03C87.2974 138.494 86.0057 138.682 84.7204 138.58C83.4652 138.304 82.2827 137.766 81.2504 137C80.9804 136.83 80.7004 136.64 80.4204 136.44C79.7804 135.97 79.1104 135.44 78.4204 134.86C71.3104 128.81 62.7104 117.04 62.1704 112.98C61.1704 105.3 70.4104 85.36 70.4104 85.36C70.0004 88.29 68.8204 105.16 74.6904 113.9C75.4781 115.165 76.5114 116.259 77.7292 117.118C78.9469 117.977 80.3245 118.583 81.7804 118.9C82.6585 119.088 83.5733 118.996 84.3965 118.637C85.2197 118.278 85.9099 117.671 86.3704 116.9V116.8C86.4504 115.8 86.5404 114.8 86.6704 113.87C86.6704 113.52 86.7604 113.17 86.8104 112.87L89.3504 113.23C89.3504 113.53 89.2704 113.82 89.2304 114.12C89.0804 115.12 88.9104 116.12 88.7104 117.12V117.22C88.9374 118.09 89.4324 118.866 90.1252 119.438C90.818 120.011 91.6735 120.351 92.5704 120.41C94.0548 120.52 95.5438 120.271 96.9118 119.684C98.2797 119.098 99.4866 118.191 100.43 117.04C107.17 109.58 108.17 92.2 108.58 89.29C108.57 89.22 114.45 113.41 111.36 120.52Z" fill="#261411"/>
<path d="M76.5303 103C77.9503 105.44 83.8403 111 88.8603 111.51C92.7303 111.86 98.0203 107.59 99.7503 106.09C98.2303 106.09 95.5003 105.83 94.1503 105.71C92.6403 105.6 80.4003 104.44 76.5303 103Z" fill="#60281F"/>
<path d="M98.0504 105.76C97.9915 105.829 97.938 105.903 97.8904 105.98L97.6204 106.35C97.0312 107.201 96.2366 107.889 95.3103 108.35H95.2003C93.7203 108.79 87.7103 108.03 83.8503 107.35C82.7786 107.191 81.7169 106.97 80.6703 106.69H80.5504C79.5504 106.07 78.8704 104.52 78.3604 103.26C84.0731 104.375 89.8464 105.153 95.6504 105.59L97.5903 105.73L98.0504 105.76Z" fill="white"/>
<path d="M97.8898 106L97.6198 106.37C97.0466 107.235 96.2477 107.926 95.3098 108.37H95.1998C93.7198 108.81 87.7098 108.05 83.8498 107.37C82.7781 107.211 81.7164 106.99 80.6698 106.71H80.5498C82.0298 106.83 93.7598 107.97 94.2698 107.83C94.6098 107.75 94.5798 107.75 94.7698 107.45C95.1287 106.87 95.4237 106.253 95.6498 105.61L97.5898 105.75L97.8898 106Z" fill="#E8E6E6"/>
<path d="M100.16 105.8C99.7102 105.8 98.9802 105.8 98.0502 105.72C97.9002 105.72 97.7502 105.72 97.5902 105.72H97.2002H96.8602C96.7471 105.71 96.6333 105.71 96.5202 105.72H96.1702C96.0102 105.72 95.8502 105.72 95.6802 105.67H95.4402H94.9302H94.6802H94.1502L93.0702 105.57L92.3402 105.49H92.2302H92.0102H91.8302H91.3802H90.8102L90.2102 105.42L90.0002 105H89.8002H89.6002L88.6002 104.88H88.4002H88.2502H87.9402H87.7902L87.2402 104.81C87.1806 104.82 87.1198 104.82 87.0602 104.81H86.8802H86.6702H86.3502H86.2302C86.1706 104.82 86.1098 104.82 86.0502 104.81H85.7602H85.4702H85.1802L84.7302 104.75L83.8602 104.62L83.4802 104.56C83.3837 104.569 83.2867 104.569 83.1902 104.56H82.9202H82.6502L82.1202 104.47L81.6102 104.39H81.5002H81.3802H81.2602H81.0902L80.6002 104.3H80.3702H80.1302H79.9402H79.7402H79.6702H79.6102H79.4202H79.2302L78.4202 104.12C77.6667 103.968 76.9323 103.733 76.2302 103.42C76.1309 103.374 76.037 103.317 75.9502 103.25L76.0102 103.44C76.1316 103.734 76.2824 104.016 76.4602 104.28C77.3016 105.487 78.278 106.594 79.3702 107.58L79.6402 107.83L80.0202 108.16C81.1495 109.143 82.3644 110.023 83.6502 110.79C85.1729 111.746 86.874 112.382 88.6502 112.66H88.8702C89.0667 112.67 89.2637 112.67 89.4602 112.66C90.3016 112.629 91.1339 112.474 91.9302 112.2C92.6691 111.948 93.3878 111.641 94.0802 111.28C94.6502 111 95.2002 110.68 95.7402 110.35L96.3802 109.94C97.8102 108.985 99.1703 107.929 100.45 106.78C100.506 106.729 100.56 106.676 100.61 106.62C100.407 106.391 100.254 106.122 100.16 105.83V105.8ZM99.4602 106.34C99.2702 106.51 99.0402 106.7 98.7902 106.9H98.7302L98.5002 107.08L98.3002 107.24L98.2402 107.29H98.1602L97.9402 107.47L97.7602 107.61L97.5102 107.79L97.2602 107.97C97.181 108.036 97.0975 108.096 97.0102 108.15L96.8802 108.25H96.8102L96.5402 108.43L96.3602 108.55L96.0002 109H95.9202L95.5502 109.22L95.0502 109.54L94.3302 109.94L94.2402 109.99L94.0402 110.1L93.9002 110.17L93.7302 110.26L93.4202 110.41L93.0802 110.57L92.5202 110.8C92.3302 110.87 92.1502 110.95 91.9702 111H91.9002L91.6702 111.08L91.3702 111.16L91.0902 111.24H90.9802L90.6202 111.31H90.5102C90.3837 111.32 90.2566 111.32 90.1302 111.31C90.0436 111.315 89.9568 111.315 89.8702 111.31H89.0602H88.7302H88.4402H88.2202H88.1402H88.0002L87.7802 111.25L87.5502 111.19L87.3102 111.12L87.1002 111.05H86.9602H86.8802H86.7502L86.5202 110.96L86.2502 110.86L85.9202 110.72L85.6802 110.6C85.4444 110.499 85.2141 110.385 84.9902 110.26L84.7902 110.15L84.6402 110.08L84.4402 109.97L84.0002 109.8L83.7802 109.68L83.7102 109.63L83.4302 109.46H83.3802L83.2002 109.35L83.0502 109.25C83.0502 109.25 83.0502 109.25 82.9802 109.19L82.7502 109.05L82.4502 108.84L82.3002 108.73L82.1302 108.62L82.0402 108.55L81.8502 108.41C81.7388 108.336 81.632 108.256 81.5302 108.17C81.2002 107.92 80.8802 107.66 80.5302 107.4L80.3502 107.24L80.2202 107.13L80.1602 107.07L79.8202 106.77C79.5702 106.55 79.3402 106.33 79.1102 106.11C78.8802 105.89 78.8702 105.87 78.7702 105.75C78.6702 105.63 78.7702 105.75 78.7702 105.75C78.7211 105.706 78.6743 105.659 78.6302 105.61C78.5718 105.558 78.5183 105.501 78.4702 105.44L78.3202 105.28C78.2202 105.17 78.1202 105.07 78.0302 104.96C77.9783 104.911 77.9314 104.858 77.8902 104.8C77.7112 104.607 77.5442 104.403 77.3902 104.19C77.3114 104.101 77.2379 104.008 77.1702 103.91C77.1313 103.868 77.0977 103.821 77.0702 103.77V103.7C77.0338 103.659 77.0003 103.616 76.9702 103.57C76.9378 103.53 76.9109 103.487 76.8902 103.44C76.8666 103.409 76.8465 103.375 76.8302 103.34C76.8011 103.307 76.7775 103.27 76.7602 103.23C76.7602 103.23 76.7602 103.23 76.7602 103.23H76.9102L77.1002 103.3H77.2502H77.3102C77.4624 103.335 77.6126 103.379 77.7602 103.43L78.0102 103.49L78.5202 103.62H78.6502L79.0602 103.72L79.3402 103.78H79.4702H79.6402C79.7347 103.794 79.8282 103.814 79.9202 103.84H80.2102H80.3602H80.4602H80.5202L80.8302 103.91L81.1602 103.97C81.2717 103.98 81.3822 104 81.4902 104.03L81.8702 104.09L82.2602 104.15L82.8502 104.24H83.0602C83.1902 104.24 83.3302 104.24 83.4602 104.3L83.8602 104.35L84.6802 104.48L85.6802 104.61L86.8602 104.76H87.0802H87.3702L87.8502 104.82H88.1102H88.0002C88.1702 104.82 88.3502 104.82 88.5102 104.88H88.8802H89.2402H89.5502H89.9902H90.0902H90.3002H90.4002H90.5002H90.6702H90.9802H91.4802H91.7302H91.8602H92.2302H92.5902H92.7902L93.8902 104.99H94.0202C94.1068 104.995 94.1936 104.995 94.2802 104.99L95.2802 105.07H95.4202H95.6002H96.2102L96.9802 105.13H97.1802C97.3102 105.13 97.4402 105.13 97.5702 105.13H97.9502H98.1402H98.3502H98.7502H99.6502C99.6702 106.2 99.5602 106.28 99.4602 106.37V106.34Z" fill="#EF7950"/>
<path d="M87.5104 101C87.5104 101 84.8004 96.46 79.4204 101C78.3876 101.92 77.0948 102.496 75.7204 102.65C73.7904 102.73 72.7204 100.75 71.8204 99.38C69.2404 103.6 75.3104 109.55 85.0504 105.38C86.2504 104.87 87.0504 106.03 88.1304 106.38C88.9404 104.63 88.7504 103 87.5104 101Z" fill="#261411"/>
<path d="M89.8102 101.31C89.8102 101.31 93.6502 97.68 97.6002 103.48C98.3401 104.648 99.4279 105.554 100.71 106.07C102.54 106.68 104.14 105.07 105.35 104C106.69 108.76 99.2202 112.83 90.9902 106.11C89.9902 105.29 88.9302 106.19 87.7702 106.19C87.4302 104.42 88.0602 102.92 89.8102 101.31Z" fill="#261411"/>
<path d="M104.29 58.89C105.19 57.8 106.4 56.89 107.36 55.89C105.69 57.05 95.91 58.99 95.36 59.17C96.21 58.45 97.11 57.76 98 57.1C95.25 58.1 84.79 58.85 84.79 58.85C85.89 59.85 94.33 65.96 95.9 66.42C98.06 67.06 110.59 63.64 114.07 55.86C112.76 56.2 105.9 58.28 104.29 58.89Z" fill="#3A2827"/>
<path d="M71.6997 122.8C71.2797 126.8 72.3197 130.94 73.4297 134.68C73.9443 133.814 74.6039 133.043 75.3797 132.4C75.5997 135.78 77.1697 139.14 78.2697 142.28C78.8497 141.55 79.3297 140.71 79.8897 139.99C79.8897 142.07 83.4597 147.5 83.4697 147.49C83.4797 147.48 88.3897 143.25 88.9597 141.25C89.3097 142.1 89.5497 143.04 89.8997 143.9C91.8197 141.18 94.2397 138.37 95.3797 135.18C95.949 136.008 96.3718 136.928 96.6297 137.9C98.7197 134.61 100.85 130.9 101.54 126.9L71.6997 122.8Z" fill="#261411"/>
<path d="M96.0004 133.83C95.7683 132.954 95.386 132.125 94.8704 131.38C94.15 133.206 93.1736 134.919 91.9704 136.47C91.2804 137.41 90.5904 138.32 89.9704 139.22C89.7604 138.71 89.6004 138.17 89.4204 137.65C89.3304 137.37 89.2404 137.1 89.1304 136.84C88.9794 137.256 88.767 137.647 88.5004 138C87.2001 139.622 85.7504 141.119 84.1704 142.47C83.0304 140.741 82.0529 138.909 81.2504 137C81.0839 136.585 80.9859 136.146 80.9604 135.7C80.7704 135.93 80.6004 136.18 80.4204 136.44C80.1204 136.88 79.8204 137.34 79.5004 137.76C79.1704 136.82 78.7904 135.85 78.4204 134.86C77.6299 132.943 77.118 130.922 76.9004 128.86C76.2038 129.438 75.6118 130.131 75.1504 130.91C74.2104 127.76 72.6404 118.77 74.6904 113.91C75.4781 115.175 76.5114 116.269 77.7291 117.128C78.9469 117.987 80.3245 118.593 81.7804 118.91C82.6585 119.098 83.5733 119.006 84.3965 118.647C85.2197 118.288 85.9099 117.681 86.3704 116.91V116.81C86.4504 115.81 86.5404 114.81 86.6704 113.88C86.6704 113.53 86.7604 113.18 86.8104 112.88L89.3504 113.24C89.3504 113.54 89.2704 113.83 89.2304 114.13C89.0804 115.13 88.9104 116.13 88.7104 117.13V117.23C88.9373 118.1 89.4323 118.876 90.1252 119.448C90.818 120.021 91.6735 120.361 92.5704 120.42C94.0548 120.53 95.5437 120.281 96.9117 119.694C98.2797 119.108 99.4865 118.201 100.43 117.05C100.28 124 97.7104 131.14 96.0004 133.83Z" fill="#3A2827"/>
</svg>
